<svg xmlns="http://www.w3.org/2000/svg" viewBox="0 0 42.94 28.47"><defs><style>.cls-1{opacity:0.35;}.cls-2{fill:#394960;}</style></defs><title>pattern_35</title><g id="Layer_2" data-name="Layer 2"><g id="fonts"><g class="cls-1"><path class="cls-2" d="M42.94,12.27s0,0,0-.06v-.33s0,0,0,0a12.25,12.25,0,0,0-24.49,0s0,0,0,.05v.39s0,.1,0,.15v3.8a6.23,6.23,0,0,1-6.25,6.11,6.14,6.14,0,0,1-6-6.13v-2H0v2a12.26,12.26,0,0,0,24.51.44s0,0,0-.05v-.39s0-.1,0-.15v-3.8a6.23,6.23,0,0,1,6.25-6.11,6.13,6.13,0,0,1,6,6.08v2h6.14Z"/></g></g></g></svg>