<svg xmlns="http://www.w3.org/2000/svg" viewBox="0 0 55.62 57.61"><defs><style>.cls-1{fill:#93a1b6;}.cls-2{fill:#fff;}</style></defs><title>default_avatar</title><g id="Layer_2" data-name="Layer 2"><g id="Layer_1-2" data-name="Layer 1"><rect class="cls-1" width="55.62" height="57.61"/><path class="cls-2" d="M33,28.45a8.21,8.21,0,1,0-10.28,0,12.68,12.68,0,0,0-7.58,11.62v2.86a.85.85,0,0,0,.84.85H39.68a.85.85,0,0,0,.85-.85V40.07A12.68,12.68,0,0,0,33,28.45ZM22.52,22.37h0c0-.1,0-.2,0-.3a5.31,5.31,0,0,1,4.17-5.18v0a5.64,5.64,0,0,1,1.16-.12,5.28,5.28,0,0,1,3.73,1.54l.06.06a5,5,0,0,1,.61.75h0a5.23,5.23,0,0,1,.89,2.76h0a.76.76,0,0,1,0,.15v.06a5.3,5.3,0,0,1-10.58.46C22.54,22.47,22.52,22.42,22.52,22.37Zm15.1,18.5H18v-.8a9.82,9.82,0,0,1,19.63,0Z"/></g></g></svg>