<svg xmlns="http://www.w3.org/2000/svg" viewBox="0 0 574.65 133.99"><defs><style>.cls-1{fill:#ee4553;}.cls-2{fill:#fbfcf8;}</style></defs><title>infocast_logo</title><g id="Layer_2" data-name="Layer 2"><g id="Layer_1-2" data-name="Layer 1"><path class="cls-1" d="M38.38,43.07c-21.11.16-38,17.65-38,38.76v13a.9.9,0,0,0,.9.9H18.62a.9.9,0,0,0,.9-.9V81.73C19.53,71,28.31,62,39,62.22A19.14,19.14,0,0,1,57.81,81.35V94.81a.9.9,0,0,0,.9.9H76a.9.9,0,0,0,.9-.9V81.35A38.28,38.28,0,0,0,38.38,43.07Z"/><rect class="cls-1" y="19.14" width="76.95" height="19.14" rx="0.9" ry="0.9"/><path class="cls-2" d="M230.05,38.28a19.14,19.14,0,0,1,18.29-19.12.9.9,0,0,0,.85-.9V.92a.9.9,0,0,0-.92-.91,38.28,38.28,0,0,0-37.37,38.27V97.83a17,17,0,0,1-17,17h-6a.9.9,0,0,0-.9.9v17.33a.9.9,0,0,0,.9.9h6a36.17,36.17,0,0,0,36.17-36.17v-26h18.27a.9.9,0,0,0,.9-.9V53.54a.9.9,0,0,0-.9-.9H230.05Z"/><path class="cls-2" d="M292.3,19.14a38.28,38.28,0,1,0,38.28,38.28A38.28,38.28,0,0,0,292.3,19.14Zm0,57.43a19.14,19.14,0,1,1,19.14-19.14A19.14,19.14,0,0,1,292.3,76.57Z"/><path class="cls-2" d="M335.37,57.72c.16,21.11,17.65,38,38.76,38h13a.9.9,0,0,0,.9-.9V77.47a.9.9,0,0,0-.9-.9H374c-10.73,0-19.72-8.78-19.52-19.52a19.14,19.14,0,0,1,19.14-18.77h13.45a.9.9,0,0,0,.9-.9V20a.9.9,0,0,0-.9-.9H373.65A38.28,38.28,0,0,0,335.37,57.72Z"/><path class="cls-2" d="M426.29,19.14A38.28,38.28,0,0,0,388,57.72c.16,21.11,17.65,38,38.76,38h32.11a.9.9,0,0,0,.9-.9V20a.9.9,0,0,0-.9-.9Zm13.45,57.43H426.67c-10.73,0-19.72-8.78-19.52-19.52a19.14,19.14,0,0,1,19.14-18.77h13.45a.9.9,0,0,1,.9.9V75.66A.9.9,0,0,1,439.75,76.57Z"/><rect class="cls-2" x="115.24" y="19.14" width="19.14" height="76.57" rx="0.9" ry="0.9"/><path class="cls-2" d="M464.6,43.5A24.18,24.18,0,0,0,488.92,67h18.82a4.79,4.79,0,1,1,0,9.57H465.5a.9.9,0,0,0-.9.9V94.82a.9.9,0,0,0,.9.9h42.24a23.93,23.93,0,1,0,0-47.86h-19a4.89,4.89,0,0,1-4.94-4.47,4.79,4.79,0,0,1,4.78-5.1h42.24a.9.9,0,0,0,.9-.9V20.06a.9.9,0,0,0-.9-.9H488.52A23.93,23.93,0,0,0,464.6,43.5Z"/><path class="cls-2" d="M172.66,19.14a33.5,33.5,0,0,0-33.5,33.5c0,.47,0,42.17,0,42.17a.9.9,0,0,0,.9.9h17.33a.9.9,0,0,0,.9-.9V52.64h0a14.36,14.36,0,0,1,28.71,0V94.81a.9.9,0,0,0,.9.9h17.33a.9.9,0,0,0,.9-.9V52.64A33.5,33.5,0,0,0,172.66,19.14Z"/><path class="cls-2" d="M555.5,57.43V38.28h19.11V19.14H555.5V0H536.36V57.43a38.28,38.28,0,0,0,38.28,38.28V76.57A19.14,19.14,0,0,1,555.5,57.43Z"/></g></g></svg>