<svg xmlns="http://www.w3.org/2000/svg" viewBox="0 0 574.65 134.38"><defs><style>.cls-1{fill:#ee4553;}.cls-2{fill:#fbfcf8;}</style></defs><title>logo_slogan</title><g id="Layer_2" data-name="Layer 2"><g id="Layer_1-2" data-name="Layer 1"><path class="cls-1" d="M38.38,43.07c-21.11.16-38,17.65-38,38.76v13a.9.9,0,0,0,.9.9H18.62a.9.9,0,0,0,.91-.9V81.73C19.53,71,28.31,62,39,62.22A19.13,19.13,0,0,1,57.81,81.35V94.81a.9.9,0,0,0,.91.9H76.05a.9.9,0,0,0,.9-.9V81.35A38.27,38.27,0,0,0,38.38,43.07Z"/><rect class="cls-1" y="19.14" width="76.95" height="19.14" rx="0.9" ry="0.9"/><path class="cls-2" d="M230.05,38.28a19.15,19.15,0,0,1,18.3-19.12.9.9,0,0,0,.85-.9V.92a.91.91,0,0,0-.92-.91,38.29,38.29,0,0,0-37.37,38.27V97.83a17,17,0,0,1-17,17h-6a.91.91,0,0,0-.91.91v17.33a.9.9,0,0,0,.91.9h6a36.16,36.16,0,0,0,36.16-36.16v-26h18.28a.9.9,0,0,0,.9-.9V53.54a.9.9,0,0,0-.9-.9H230.05Z"/><path class="cls-2" d="M292.3,19.14a38.29,38.29,0,1,0,38.28,38.29A38.28,38.28,0,0,0,292.3,19.14Zm0,57.43a19.15,19.15,0,1,1,19.14-19.14A19.14,19.14,0,0,1,292.3,76.57Z"/><path class="cls-2" d="M335.37,57.72c.16,21.11,17.66,38,38.76,38h13a.9.9,0,0,0,.9-.9V77.47a.9.9,0,0,0-.9-.9H374c-10.73,0-19.72-8.79-19.51-19.52a19.13,19.13,0,0,1,19.13-18.77h13.46a.9.9,0,0,0,.9-.9V20.05a.9.9,0,0,0-.9-.91H373.65A38.28,38.28,0,0,0,335.37,57.72Z"/><path class="cls-2" d="M426.29,19.14A38.28,38.28,0,0,0,388,57.72c.16,21.11,17.66,38,38.77,38h32.11a.9.9,0,0,0,.9-.9V20.05a.9.9,0,0,0-.9-.91Zm13.46,57.43H426.67c-10.73,0-19.72-8.79-19.51-19.52a19.14,19.14,0,0,1,19.13-18.77h13.46a.9.9,0,0,1,.9.91V75.66A.9.9,0,0,1,439.75,76.57Z"/><rect class="cls-2" x="115.24" y="19.14" width="19.14" height="76.57" rx="0.9" ry="0.9"/><path class="cls-2" d="M464.6,43.5A24.18,24.18,0,0,0,488.92,67h18.82a4.79,4.79,0,0,1,0,9.58H465.5a.9.9,0,0,0-.9.9V94.82a.9.9,0,0,0,.9.91h42.24a23.93,23.93,0,0,0,0-47.86H488.69a4.89,4.89,0,0,1-4.94-4.46,4.79,4.79,0,0,1,4.77-5.11h42.24a.9.9,0,0,0,.9-.9V20.06a.9.9,0,0,0-.9-.9H488.52A23.93,23.93,0,0,0,464.6,43.5Z"/><path class="cls-2" d="M172.66,19.14a33.5,33.5,0,0,0-33.5,33.5c0,.47,0,42.17,0,42.17a.9.9,0,0,0,.9.9h17.34a.9.9,0,0,0,.9-.9V52.64h0a14.36,14.36,0,1,1,28.71,0V94.81a.9.9,0,0,0,.9.9h17.34a.9.9,0,0,0,.9-.9V52.64A33.5,33.5,0,0,0,172.66,19.14Z"/><path class="cls-2" d="M555.5,57.43V38.28h19.11V19.14H555.5V0H536.36V57.43a38.28,38.28,0,0,0,38.29,38.28V76.57A19.14,19.14,0,0,1,555.5,57.43Z"/><path class="cls-2" d="M275.58,126.57h-6.75v-21h6.75c7.22,0,10.27,4.46,10.27,10.52S282.8,126.57,275.58,126.57Zm-4.37-2.12h4.37c5.8,0,7.84-3.72,7.84-8.41s-2-8.41-7.84-8.41h-4.37Z"/><path class="cls-2" d="M303.45,126.57v-2.95a5.59,5.59,0,0,1-5.11,3.24c-5,0-7.45-3.55-7.45-7.67s2.46-7.68,7.45-7.68a5.59,5.59,0,0,1,5.11,3.24v-3h2.26v14.77Zm-10.21-7.38c0,3.06,1.74,5.73,5.1,5.73s5.11-2.67,5.11-5.73-1.74-5.74-5.11-5.74S293.24,116.12,293.24,119.19Z"/><path class="cls-2" d="M310.75,111.8h3v-4.31H316v4.31h4.4v1.94H316v6.36c0,3.22.13,4.82,2.4,4.82a8.3,8.3,0,0,0,1.87-.29l.58,1.85a7.62,7.62,0,0,1-2.45.38c-4.15,0-4.67-2.26-4.67-6.76v-6.36h-3Z"/><path class="cls-2" d="M337.88,126.57v-2.95a5.59,5.59,0,0,1-5.1,3.24c-5,0-7.46-3.55-7.46-7.67s2.47-7.68,7.46-7.68a5.59,5.59,0,0,1,5.1,3.24v-3h2.26v14.77Zm-10.21-7.38c0,3.06,1.74,5.73,5.11,5.73s5.1-2.67,5.1-5.73-1.74-5.74-5.1-5.74S327.67,116.12,327.67,119.19Z"/><path class="cls-2" d="M368.25,126.57v-2.95a5.61,5.61,0,0,1-5.11,3.24c-5,0-7.45-3.55-7.45-7.67s2.46-7.68,7.45-7.68a5.61,5.61,0,0,1,5.11,3.24V104.32h2.26v22.25ZM358,119.19c0,3.06,1.75,5.73,5.11,5.73s5.11-2.67,5.11-5.73-1.75-5.74-5.11-5.74S358,116.12,358,119.19Z"/><path class="cls-2" d="M378.68,111.8v2.54a4.29,4.29,0,0,1,4.28-2.83,6.94,6.94,0,0,1,3.4.73l-1.1,1.76a5.08,5.08,0,0,0-2.29-.55c-3,0-4.29,2-4.29,4.91v8.21h-2.26V111.8Z"/><path class="cls-2" d="M392.47,106.21a1.52,1.52,0,0,1,1.51,1.5,1.52,1.52,0,0,1-3,0A1.52,1.52,0,0,1,392.47,106.21Zm-1.13,5.59h2.26v14.77h-2.26Z"/><path class="cls-2" d="M410.71,111.8h2.51l-6.17,14.77h-2.32l-6.16-14.77h2.51l4.81,12Z"/><path class="cls-2" d="M428.39,123.09l1.44,1.41a8.45,8.45,0,0,1-6.22,2.36c-4.46,0-7.11-3.26-7.11-7.67s2.65-7.68,7.11-7.68c4.18,0,7.12,2.82,7.12,8.64H418.91a4.6,4.6,0,0,0,4.7,4.77A8.08,8.08,0,0,0,428.39,123.09Zm-.07-4.87c-.23-2.7-1.86-4.77-4.71-4.77s-4.45,2.08-4.7,4.77Z"/><path class="cls-2" d="M438.32,126.57h-2.27V111.8h2.27v2.54a4.27,4.27,0,0,1,4.27-2.83c4.24,0,6.53,2.54,6.53,6.85v8.21h-2.26v-8.21c0-2.89-1.26-4.91-4.27-4.91s-4.27,2-4.27,4.91Z"/><path class="cls-2" d="M466.76,106.21a1.52,1.52,0,0,1,1.51,1.5,1.51,1.51,0,0,1-3,0A1.52,1.52,0,0,1,466.76,106.21Zm-1.13,5.59h2.26v14.77h-2.26Z"/><path class="cls-2" d="M476.44,126.57h-2.26V111.8h2.26v2.54a4.29,4.29,0,0,1,4.28-2.83c4.24,0,6.53,2.54,6.53,6.85v8.21H485v-8.21c0-2.89-1.27-4.91-4.27-4.91s-4.28,2-4.28,4.91Z"/><path class="cls-2" d="M502.66,114.49a9.77,9.77,0,0,0-4.41-1c-2.49,0-3.33.88-3.33,2.11s1,1.86,3.72,2.36c3.9.77,5.9,1.81,5.9,4.64s-2.46,4.3-5.9,4.3c-4.42,0-6.36-1.67-6.36-1.67l1.07-1.7a10.65,10.65,0,0,0,5.29,1.43c2.11,0,3.58-.77,3.58-2.36s-1.1-2.13-4-2.66c-4.11-.79-5.64-2.11-5.64-4.34s1.78-4,5.65-4a10.62,10.62,0,0,1,5.48,1.28Z"/><path class="cls-2" d="M511.08,106.21a1.52,1.52,0,0,1,1.51,1.5,1.51,1.51,0,0,1-3,0A1.52,1.52,0,0,1,511.08,106.21ZM510,111.8h2.26v14.77H510Z"/><path class="cls-2" d="M525.38,126.86c-5,0-7.46-3.55-7.46-7.67s2.47-7.68,7.46-7.68a5.59,5.59,0,0,1,5.1,3.24v-3h2.26v14.77c0,6.21-4,7.81-7.38,7.81a10.65,10.65,0,0,1-6.25-1.81L520.4,131a9.85,9.85,0,0,0,5,1.45c3.14,0,5.12-1.88,5.12-5.87v-2.94A5.61,5.61,0,0,1,525.38,126.86Zm-5.11-7.67c0,3.06,1.74,5.73,5.11,5.73s5.1-2.67,5.1-5.73-1.74-5.74-5.1-5.74S520.27,116.12,520.27,119.19Z"/><path class="cls-2" d="M540.92,126.57h-2.26V104.32h2.26v10a4.27,4.27,0,0,1,4.27-2.83c4.24,0,6.53,2.54,6.53,6.85v8.21h-2.26v-8.21c0-2.89-1.26-4.91-4.27-4.91s-4.27,2-4.27,4.91Z"/><path class="cls-2" d="M556.75,111.8h3v-4.31H562v4.31h4.41v1.94H562v6.36c0,3.22.14,4.82,2.41,4.82a8.16,8.16,0,0,0,1.86-.29l.59,1.85a7.62,7.62,0,0,1-2.45.38c-4.15,0-4.67-2.26-4.67-6.76v-6.36h-3Z"/><path class="cls-2" d="M573.13,123.69a1.52,1.52,0,1,1-1.51,1.51A1.52,1.52,0,0,1,573.13,123.69Z"/></g></g></svg>