<svg viewBox="0 0 574.65 133.99" xmlns="http://www.w3.org/2000/svg"><path d="m38.38 43.07c-21.11.16-38 17.65-38 38.76v13a.9.9 0 0 0 .9.9h17.34a.9.9 0 0 0 .91-.9v-13.1c0-10.73 8.78-19.73 19.47-19.51a19.13 19.13 0 0 1 18.81 19.13v13.46a.9.9 0 0 0 .91.9h17.33a.9.9 0 0 0 .9-.9v-13.46a38.27 38.27 0 0 0 -38.57-38.28z" fill="#ee4553"/><rect fill="#ee4553" height="19.14" rx=".9" width="76.95" y="19.14"/><g fill="#fbfcf8"><path d="m230.05 38.28a19.15 19.15 0 0 1 18.3-19.12.9.9 0 0 0 .85-.9v-17.34a.91.91 0 0 0 -.92-.91 38.29 38.29 0 0 0 -37.37 38.27v59.55a17 17 0 0 1 -17 17h-6a.91.91 0 0 0 -.91.91v17.33a.9.9 0 0 0 .91.9h6a36.16 36.16 0 0 0 36.16-36.16v-26h18.28a.9.9 0 0 0 .9-.9v-17.37a.9.9 0 0 0 -.9-.9h-18.3z"/><path d="m292.3 19.14a38.29 38.29 0 1 0 38.28 38.29 38.28 38.28 0 0 0 -38.28-38.29zm0 57.43a19.15 19.15 0 1 1 19.14-19.14 19.14 19.14 0 0 1 -19.14 19.14z"/><path d="m335.37 57.72c.16 21.11 17.66 38 38.76 38h13a.9.9 0 0 0 .9-.9v-17.35a.9.9 0 0 0 -.9-.9h-13.13c-10.73 0-19.72-8.79-19.51-19.52a19.13 19.13 0 0 1 19.13-18.77h13.46a.9.9 0 0 0 .9-.9v-17.33a.9.9 0 0 0 -.9-.91h-13.43a38.28 38.28 0 0 0 -38.28 38.58z"/><path d="m426.29 19.14a38.28 38.28 0 0 0 -38.29 38.58c.16 21.11 17.66 38 38.77 38h32.11a.9.9 0 0 0 .9-.9v-74.77a.9.9 0 0 0 -.9-.91zm13.46 57.43h-13.08c-10.73 0-19.72-8.79-19.51-19.52a19.14 19.14 0 0 1 19.13-18.77h13.46a.9.9 0 0 1 .9.91v36.47a.9.9 0 0 1 -.9.91z"/><rect height="76.57" rx=".9" width="19.14" x="115.24" y="19.14"/><path d="m464.6 43.5a24.18 24.18 0 0 0 24.32 23.5h18.82a4.79 4.79 0 0 1 0 9.58h-42.24a.9.9 0 0 0 -.9.9v17.34a.9.9 0 0 0 .9.91h42.24a23.93 23.93 0 0 0 0-47.86h-19.05a4.89 4.89 0 0 1 -4.94-4.46 4.79 4.79 0 0 1 4.77-5.11h42.24a.9.9 0 0 0 .9-.9v-17.34a.9.9 0 0 0 -.9-.9h-42.24a23.93 23.93 0 0 0 -23.92 24.34z"/><path d="m172.66 19.14a33.5 33.5 0 0 0 -33.5 33.5v42.17a.9.9 0 0 0 .9.9h17.34a.9.9 0 0 0 .9-.9v-42.17a14.36 14.36 0 1 1 28.71 0v42.17a.9.9 0 0 0 .9.9h17.34a.9.9 0 0 0 .9-.9v-42.17a33.5 33.5 0 0 0 -33.49-33.5z"/><path d="m555.5 57.43v-19.15h19.11v-19.14h-19.11v-19.14h-19.14v57.43a38.28 38.28 0 0 0 38.29 38.28v-19.14a19.14 19.14 0 0 1 -19.15-19.14z"/><path d="m254 108.56h2.55v18.44h-2.55z"/><path d="m262.85 127h-2.43v-13h2.43v2a3.76 3.76 0 0 1 3.73-2.22c4.08 0 5.89 2.53 5.89 6.27v7h-2.47v-7c0-2.29-.77-4.28-3.59-4.28s-3.6 2-3.6 4.28z"/><path d="m283.93 114v2h-3.76v11h-2.42v-11h-2.45v-2h2.45c0-4.49.75-6.7 4.28-6.7a7.09 7.09 0 0 1 2.8.55l-.71 1.77a6.75 6.75 0 0 0 -2-.33c-1.77 0-2 1.38-2 4.71z"/><path d="m286.36 120.45c0-3.86 2.65-6.76 7.09-6.76s7.09 2.9 7.09 6.76-2.65 6.76-7.09 6.76-7.09-2.89-7.09-6.76zm11.68 0c0-2.48-1.45-4.77-4.59-4.77s-4.59 2.29-4.59 4.77 1.45 4.77 4.59 4.77 4.55-2.22 4.55-4.77z"/><path d="m311.58 116.11a3.87 3.87 0 0 0 -1.92-.43c-2.84 0-3.61 2-3.61 4.28v7h-2.42v-12.96h2.42v2a3.78 3.78 0 0 1 3.74-2.22 6.94 6.94 0 0 1 2.88.56z"/><path d="m315.11 114h2.43v1.82a3.33 3.33 0 0 1 3.29-2.08 4.64 4.64 0 0 1 4.55 2.5 4.48 4.48 0 0 1 4-2.5c3.44 0 5.21 2.06 5.21 6v7.26h-2.43v-7.31c0-2.49-1-4-3-4s-3 1.47-3 4v7.31h-2.42v-7.31c0-2.49-1-4-3-4s-3 1.47-3 4v7.31h-2.43z"/><path d="m348.83 127v-2.58a5.25 5.25 0 0 1 -4.75 2.84c-4.06 0-6.45-3-6.45-6.76s2.39-6.76 6.45-6.76a5.26 5.26 0 0 1 4.75 2.83v-2.57h2.42v13zm-8.72-6.5c0 2.31 1.32 4.77 4.36 4.77s4.36-2.46 4.36-4.77-1.32-4.77-4.36-4.77-4.36 2.42-4.36 4.72z"/><path d="m354.08 114h2.5v-3.84h2.42v3.84h3.75v2h-3.75v5.66c0 2.64.2 3.64 1.87 3.64a5.93 5.93 0 0 0 1.77-.27l.58 1.88a7.77 7.77 0 0 1 -2.35.37c-3.53 0-4.3-1.67-4.3-5.62v-5.66h-2.5z"/><path d="m367.61 108.56a1.56 1.56 0 1 1 -1.56 1.56 1.57 1.57 0 0 1 1.56-1.56zm-1.21 5.44h2.42v13h-2.42z"/><path d="m372.25 120.45c0-3.86 2.66-6.76 7.1-6.76s7.09 2.9 7.09 6.76-2.65 6.76-7.09 6.76-7.1-2.89-7.1-6.76zm11.69 0c0-2.48-1.45-4.77-4.59-4.77s-4.59 2.29-4.59 4.77 1.45 4.77 4.59 4.77 4.59-2.22 4.59-4.77z"/><path d="m392 127h-2.42v-13h2.42v2a3.77 3.77 0 0 1 3.73-2.22c4.08 0 5.89 2.53 5.89 6.27v7h-2.42v-7c0-2.29-.77-4.28-3.6-4.28s-3.6 2-3.6 4.28z"/><path d="m414.33 108.56a1.56 1.56 0 1 1 0 3.12 1.56 1.56 0 0 1 0-3.12zm-1.2 5.39h2.42v13h-2.42z"/><path d="m421.92 127h-2.43v-13h2.43v2a3.76 3.76 0 0 1 3.73-2.22c4.08 0 5.89 2.53 5.89 6.27v7h-2.43v-7c0-2.29-.77-4.28-3.59-4.28s-3.6 2-3.6 4.28z"/><path d="m450.61 114v2h-3.76v11h-2.42v-11h-2.43v-2h2.45c0-4.49.75-6.7 4.28-6.7a7.05 7.05 0 0 1 2.8.55l-.71 1.77a6.69 6.69 0 0 0 -2-.33c-1.77 0-2 1.38-2 4.71z"/><path d="m453 120.45c0-3.86 2.66-6.76 7.09-6.76s7.1 2.9 7.1 6.76-2.66 6.76-7.1 6.76-7.09-2.89-7.09-6.76zm11.69 0c0-2.48-1.45-4.77-4.6-4.77s-4.59 2.29-4.59 4.77 1.45 4.77 4.59 4.77 4.64-2.22 4.64-4.77z"/><path d="m478.26 116.11a3.87 3.87 0 0 0 -1.92-.43c-2.84 0-3.61 2-3.61 4.28v7h-2.42v-12.96h2.42v2a3.78 3.78 0 0 1 3.74-2.22 6.91 6.91 0 0 1 2.88.56z"/><path d="m481.8 114h2.42v1.82a3.35 3.35 0 0 1 3.3-2.08 4.64 4.64 0 0 1 4.54 2.5 4.49 4.49 0 0 1 4-2.5c3.44 0 5.21 2.06 5.21 6v7.26h-2.47v-7.31c0-2.49-1-4-3-4s-3 1.47-3 4v7.31h-2.5v-7.31c0-2.49-1-4-3-4s-3 1.47-3 4v7.31h-2.5z"/><path d="m515.51 127v-2.58a5.25 5.25 0 0 1 -4.75 2.84c-4.06 0-6.45-3-6.45-6.76s2.39-6.76 6.45-6.76a5.26 5.26 0 0 1 4.75 2.83v-2.57h2.42v13zm-8.72-6.5c0 2.31 1.32 4.77 4.36 4.77s4.36-2.46 4.36-4.77-1.32-4.77-4.36-4.77-4.36 2.42-4.36 4.72z"/><path d="m520.76 114h2.5v-3.84h2.43v3.84h3.76v2h-3.76v5.66c0 2.64.2 3.64 1.87 3.64a5.93 5.93 0 0 0 1.77-.27l.58 1.88a7.77 7.77 0 0 1 -2.35.37c-3.53 0-4.3-1.67-4.3-5.62v-5.66h-2.5z"/><path d="m534.29 108.56a1.56 1.56 0 1 1 -1.55 1.56 1.56 1.56 0 0 1 1.55-1.56zm-1.21 5.44h2.43v13h-2.43z"/><path d="m538.94 120.45c0-3.86 2.65-6.76 7.09-6.76s7.09 2.9 7.09 6.76-2.65 6.76-7.09 6.76-7.09-2.89-7.09-6.76zm11.68 0c0-2.48-1.45-4.77-4.59-4.77s-4.59 2.29-4.59 4.77 1.45 4.77 4.59 4.77 4.59-2.22 4.59-4.77z"/><path d="m558.63 127h-2.42v-13h2.42v2a3.78 3.78 0 0 1 3.73-2.22c4.08 0 5.89 2.53 5.89 6.27v7h-2.42v-7c0-2.29-.77-4.28-3.59-4.28s-3.61 2-3.61 4.28z"/><path d="m573.12 124a1.53 1.53 0 1 1 -1.53 1.52 1.52 1.52 0 0 1 1.53-1.52z"/></g></svg>