<svg xmlns="http://www.w3.org/2000/svg" viewBox="0 0 574.65 133.99"><defs><style>.cls-1{fill:#ee4553;}.cls-2{fill:#fbfcf8;}</style></defs><title>logo_slogan</title><g id="Layer_2" data-name="Layer 2"><g id="LAYOUT_Edit" data-name="LAYOUT Edit"><path class="cls-1" d="M38.38,43.07c-21.11.16-38,17.65-38,38.76v13a.9.9,0,0,0,.9.9H18.62a.9.9,0,0,0,.91-.9V81.73C19.53,71,28.31,62,39,62.22A19.13,19.13,0,0,1,57.81,81.35V94.81a.9.9,0,0,0,.91.9H76.05a.9.9,0,0,0,.9-.9V81.35A38.27,38.27,0,0,0,38.38,43.07Z"/><rect class="cls-1" y="19.14" width="76.95" height="19.14" rx="0.9"/><path class="cls-2" d="M230.05,38.28a19.15,19.15,0,0,1,18.3-19.12.9.9,0,0,0,.85-.9V.92a.91.91,0,0,0-.92-.91,38.29,38.29,0,0,0-37.37,38.27V97.83a17,17,0,0,1-17,17h-6a.91.91,0,0,0-.91.91v17.33a.9.9,0,0,0,.91.9h6a36.16,36.16,0,0,0,36.16-36.16v-26h18.28a.9.9,0,0,0,.9-.9V53.54a.9.9,0,0,0-.9-.9H230.05Z"/><path class="cls-2" d="M292.3,19.14a38.29,38.29,0,1,0,38.28,38.29A38.28,38.28,0,0,0,292.3,19.14Zm0,57.43a19.15,19.15,0,1,1,19.14-19.14A19.14,19.14,0,0,1,292.3,76.57Z"/><path class="cls-2" d="M335.37,57.72c.16,21.11,17.66,38,38.76,38h13a.9.9,0,0,0,.9-.9V77.47a.9.9,0,0,0-.9-.9H374c-10.73,0-19.72-8.79-19.51-19.52a19.13,19.13,0,0,1,19.13-18.77h13.46a.9.9,0,0,0,.9-.9V20.05a.9.9,0,0,0-.9-.91H373.65A38.28,38.28,0,0,0,335.37,57.72Z"/><path class="cls-2" d="M426.29,19.14A38.28,38.28,0,0,0,388,57.72c.16,21.11,17.66,38,38.77,38h32.11a.9.9,0,0,0,.9-.9V20.05a.9.9,0,0,0-.9-.91Zm13.46,57.43H426.67c-10.73,0-19.72-8.79-19.51-19.52a19.14,19.14,0,0,1,19.13-18.77h13.46a.9.9,0,0,1,.9.91V75.66A.9.9,0,0,1,439.75,76.57Z"/><rect class="cls-2" x="115.24" y="19.14" width="19.14" height="76.57" rx="0.9"/><path class="cls-2" d="M464.6,43.5A24.18,24.18,0,0,0,488.92,67h18.82a4.79,4.79,0,0,1,0,9.58H465.5a.9.9,0,0,0-.9.9V94.82a.9.9,0,0,0,.9.91h42.24a23.93,23.93,0,0,0,0-47.86H488.69a4.89,4.89,0,0,1-4.94-4.46,4.79,4.79,0,0,1,4.77-5.11h42.24a.9.9,0,0,0,.9-.9V20.06a.9.9,0,0,0-.9-.9H488.52A23.93,23.93,0,0,0,464.6,43.5Z"/><path class="cls-2" d="M172.66,19.14a33.5,33.5,0,0,0-33.5,33.5c0,.47,0,42.17,0,42.17a.9.9,0,0,0,.9.9h17.34a.9.9,0,0,0,.9-.9V52.64h0a14.36,14.36,0,1,1,28.71,0V94.81a.9.9,0,0,0,.9.9h17.34a.9.9,0,0,0,.9-.9V52.64A33.5,33.5,0,0,0,172.66,19.14Z"/><path class="cls-2" d="M555.5,57.43V38.28h19.11V19.14H555.5V0H536.36V57.43a38.28,38.28,0,0,0,38.29,38.28V76.57A19.14,19.14,0,0,1,555.5,57.43Z"/><path class="cls-2" d="M254,108.56h2.55V127H254Z"/><path class="cls-2" d="M262.85,127h-2.43V114h2.43v2a3.76,3.76,0,0,1,3.73-2.22c4.08,0,5.89,2.53,5.89,6.27v7H270v-7c0-2.29-.77-4.28-3.59-4.28s-3.6,2-3.6,4.28Z"/><path class="cls-2" d="M283.93,114v2h-3.76v11h-2.42v-11H275.3v-2h2.45c0-4.49.75-6.7,4.28-6.7a7.09,7.09,0,0,1,2.8.55l-.71,1.77a6.75,6.75,0,0,0-2-.33c-1.77,0-2,1.38-2,4.71Z"/><path class="cls-2" d="M286.36,120.45c0-3.86,2.65-6.76,7.09-6.76s7.09,2.9,7.09,6.76-2.65,6.76-7.09,6.76S286.36,124.32,286.36,120.45Zm11.68,0c0-2.48-1.45-4.77-4.59-4.77s-4.59,2.29-4.59,4.77,1.45,4.77,4.59,4.77S298,123,298,120.45Z"/><path class="cls-2" d="M311.58,116.11a3.87,3.87,0,0,0-1.92-.43c-2.84,0-3.61,2-3.61,4.28v7h-2.42V114h2.42v2a3.78,3.78,0,0,1,3.74-2.22,6.94,6.94,0,0,1,2.88.56Z"/><path class="cls-2" d="M315.11,114h2.43v1.82a3.33,3.33,0,0,1,3.29-2.08,4.64,4.64,0,0,1,4.55,2.5,4.48,4.48,0,0,1,4-2.5c3.44,0,5.21,2.06,5.21,6V127h-2.43v-7.31c0-2.49-1-4-3-4s-3,1.47-3,4V127h-2.42v-7.31c0-2.49-1-4-3-4s-3,1.47-3,4V127h-2.43Z"/><path class="cls-2" d="M348.83,127v-2.58a5.25,5.25,0,0,1-4.75,2.84c-4.06,0-6.45-3-6.45-6.76s2.39-6.76,6.45-6.76a5.26,5.26,0,0,1,4.75,2.83V114h2.42v13Zm-8.72-6.5c0,2.31,1.32,4.77,4.36,4.77s4.36-2.46,4.36-4.77-1.32-4.77-4.36-4.77S340.11,118.15,340.11,120.45Z"/><path class="cls-2" d="M354.08,114h2.5v-3.84H359V114h3.75v2H359v5.66c0,2.64.2,3.64,1.87,3.64a5.93,5.93,0,0,0,1.77-.27l.58,1.88a7.77,7.77,0,0,1-2.35.37c-3.53,0-4.3-1.67-4.3-5.62v-5.66h-2.5Z"/><path class="cls-2" d="M367.61,108.56a1.56,1.56,0,1,1-1.56,1.56A1.57,1.57,0,0,1,367.61,108.56ZM366.4,114h2.42v13H366.4Z"/><path class="cls-2" d="M372.25,120.45c0-3.86,2.66-6.76,7.1-6.76s7.09,2.9,7.09,6.76-2.65,6.76-7.09,6.76S372.25,124.32,372.25,120.45Zm11.69,0c0-2.48-1.45-4.77-4.59-4.77s-4.59,2.29-4.59,4.77,1.45,4.77,4.59,4.77S383.94,123,383.94,120.45Z"/><path class="cls-2" d="M392,127h-2.42V114H392v2a3.77,3.77,0,0,1,3.73-2.22c4.08,0,5.89,2.53,5.89,6.27v7h-2.42v-7c0-2.29-.77-4.28-3.6-4.28s-3.6,2-3.6,4.28Z"/><path class="cls-2" d="M414.33,108.56a1.56,1.56,0,1,1,0,3.12,1.56,1.56,0,0,1,0-3.12Zm-1.2,5.39h2.42v13h-2.42Z"/><path class="cls-2" d="M421.92,127h-2.43V114h2.43v2a3.76,3.76,0,0,1,3.73-2.22c4.08,0,5.89,2.53,5.89,6.27v7h-2.43v-7c0-2.29-.77-4.28-3.59-4.28s-3.6,2-3.6,4.28Z"/><path class="cls-2" d="M450.61,114v2h-3.76v11h-2.42v-11H442v-2h2.45c0-4.49.75-6.7,4.28-6.7a7.05,7.05,0,0,1,2.8.55l-.71,1.77a6.69,6.69,0,0,0-2-.33c-1.77,0-2,1.38-2,4.71Z"/><path class="cls-2" d="M453,120.45c0-3.86,2.66-6.76,7.09-6.76s7.1,2.9,7.1,6.76-2.66,6.76-7.1,6.76S453,124.32,453,120.45Zm11.69,0c0-2.48-1.45-4.77-4.6-4.77s-4.59,2.29-4.59,4.77,1.45,4.77,4.59,4.77S464.73,123,464.73,120.45Z"/><path class="cls-2" d="M478.26,116.11a3.87,3.87,0,0,0-1.92-.43c-2.84,0-3.61,2-3.61,4.28v7h-2.42V114h2.42v2a3.78,3.78,0,0,1,3.74-2.22,6.91,6.91,0,0,1,2.88.56Z"/><path class="cls-2" d="M481.8,114h2.42v1.82a3.35,3.35,0,0,1,3.3-2.08,4.64,4.64,0,0,1,4.54,2.5,4.49,4.49,0,0,1,4-2.5c3.44,0,5.21,2.06,5.21,6V127H498.8v-7.31c0-2.49-1-4-3-4s-3,1.47-3,4V127H490.3v-7.31c0-2.49-1-4-3-4s-3,1.47-3,4V127H481.8Z"/><path class="cls-2" d="M515.51,127v-2.58a5.25,5.25,0,0,1-4.75,2.84c-4.06,0-6.45-3-6.45-6.76s2.39-6.76,6.45-6.76a5.26,5.26,0,0,1,4.75,2.83V114h2.42v13Zm-8.72-6.5c0,2.31,1.32,4.77,4.36,4.77s4.36-2.46,4.36-4.77-1.32-4.77-4.36-4.77S506.79,118.15,506.79,120.45Z"/><path class="cls-2" d="M520.76,114h2.5v-3.84h2.43V114h3.76v2h-3.76v5.66c0,2.64.2,3.64,1.87,3.64a5.93,5.93,0,0,0,1.77-.27l.58,1.88a7.77,7.77,0,0,1-2.35.37c-3.53,0-4.3-1.67-4.3-5.62v-5.66h-2.5Z"/><path class="cls-2" d="M534.29,108.56a1.56,1.56,0,1,1-1.55,1.56A1.56,1.56,0,0,1,534.29,108.56ZM533.08,114h2.43v13h-2.43Z"/><path class="cls-2" d="M538.94,120.45c0-3.86,2.65-6.76,7.09-6.76s7.09,2.9,7.09,6.76-2.65,6.76-7.09,6.76S538.94,124.32,538.94,120.45Zm11.68,0c0-2.48-1.45-4.77-4.59-4.77s-4.59,2.29-4.59,4.77,1.45,4.77,4.59,4.77S550.62,123,550.62,120.45Z"/><path class="cls-2" d="M558.63,127h-2.42V114h2.42v2a3.78,3.78,0,0,1,3.73-2.22c4.08,0,5.89,2.53,5.89,6.27v7h-2.42v-7c0-2.29-.77-4.28-3.59-4.28s-3.61,2-3.61,4.28Z"/><path class="cls-2" d="M573.12,124a1.53,1.53,0,1,1-1.53,1.52A1.52,1.52,0,0,1,573.12,124Z"/></g></g></svg>