<svg xmlns="http://www.w3.org/2000/svg" viewBox="0 0 8.29 9.06"><defs><style>.cls-1,.cls-2{fill:#394960;}.cls-1{opacity:0.35;}.cls-2{opacity:0;}</style></defs><title>pattern35</title><g id="Layer_2" data-name="Layer 2"><g id="fonts"><path class="cls-1" d="M8.24,1.37A2.75,2.75,0,0,0,5.54,4h0V5A1.39,1.39,0,0,1,2.75,5V4h0A2.75,2.75,0,0,0,0,1.37H0V2.73A1.39,1.39,0,0,1,1.39,4.09v1h0A2.75,2.75,0,0,0,4.1,7.7h.09a2.75,2.75,0,0,0,2.7-2.63h0v-1A1.39,1.39,0,0,1,8.29,2.73V1.37Z"/><path class="cls-2" d="M1.78,0A2.71,2.71,0,0,0,4.1,1.37h.09A2.71,2.71,0,0,0,6.51,0Z"/><path class="cls-2" d="M1.78,7.7A2.71,2.71,0,0,0,4.1,9.06h.09A2.71,2.71,0,0,0,6.51,7.7Z"/></g></g></svg>