<?xml version="1.0" standalone="no"?>
<!DOCTYPE svg PUBLIC "-//W3C//DTD SVG 20010904//EN"
 "http://www.w3.org/TR/2001/REC-SVG-20010904/DTD/svg10.dtd">
<svg version="1.0" xmlns="http://www.w3.org/2000/svg"
 width="300.000000pt" height="300.000000pt" viewBox="0 0 300.000000 300.000000"
 preserveAspectRatio="xMidYMid meet">
<metadata>
Created by potrace 1.11, written by Peter Selinger 2001-2013
</metadata>
<g transform="translate(0.000000,300.000000) scale(0.100000,-0.100000)"
fill="#000000" stroke="none">
<path d="M44 2992 c-10 -2 -23 -8 -28 -12 -14 -14 -11 -709 3 -723 9 -9 372
-12 1479 -12 807 -1 1475 1 1485 3 16 4 17 30 17 373 l0 369 -22 1 c-98 2
-2919 3 -2934 1z"/>
<path d="M1295 2045 c-321 -50 -608 -195 -830 -419 -93 -93 -118 -124 -187
-224 -100 -147 -176 -322 -222 -507 -33 -136 -40 -225 -40 -567 -1 -230 2
-300 12 -310 20 -20 709 -19 725 1 8 9 12 102 13 305 1 310 5 365 36 460 78
237 254 413 498 496 92 32 285 37 386 10 137 -36 259 -106 351 -201 74 -77 92
-102 137 -194 73 -150 80 -193 81 -552 0 -238 3 -315 13 -325 10 -10 93 -13
355 -14 188 0 350 4 360 9 18 8 18 28 14 385 -2 207 -7 391 -11 407 -3 17 -13
59 -21 95 -126 572 -606 1032 -1182 1136 -13 2 -35 7 -50 10 -57 12 -359 12
-438 -1z"/>
</g>
</svg>
