<svg xmlns="http://www.w3.org/2000/svg" viewBox="0 0 2148.5 716.41">
    <g data-name="Layer 2">
        <g data-name="LAYOUT Edit">
            <path d="M2146 678.88C1430.67 551.47 715.33 807.63 0 679.33V39.58c715.33 128.3 1430.67-127.85 2146-.45z" fill="#f4fafd"/>
            <path fill="none" stroke="#fff" stroke-linecap="round" stroke-miterlimit="10" stroke-width="5" d="M1402.55 642.89h0"/>
            <path d="M1422.65 641.62c237.77-14.59 475.53-15.41 713.3 25.75" stroke-dasharray="0 20.09" fill="none" stroke="#fff" stroke-linecap="round" stroke-miterlimit="10" stroke-width="5"/>
            <path fill="none" stroke="#fff" stroke-linecap="round" stroke-miterlimit="10" stroke-width="5" d="M2146 669.13h0M1402.55 624.89h0"/>
            <path d="M1422.65 623.62c237.77-14.59 475.53-15.41 713.3 25.75" stroke-dasharray="0 20.09" fill="none" stroke="#fff" stroke-linecap="round" stroke-miterlimit="10" stroke-width="5"/>
            <path fill="none" stroke="#fff" stroke-linecap="round" stroke-miterlimit="10" stroke-width="5" d="M2146 651.13h0M1402.55 606.89h0"/>
            <path d="M1422.65 605.62c237.77-14.59 475.53-15.41 713.3 25.75" stroke-dasharray="0 20.09" fill="none" stroke="#fff" stroke-linecap="round" stroke-miterlimit="10" stroke-width="5"/>
            <path fill="none" stroke="#fff" stroke-linecap="round" stroke-miterlimit="10" stroke-width="5" d="M2146 633.13h0M1402.55 588.89h0"/>
            <path d="M1422.65 587.62c237.77-14.59 475.53-15.41 713.3 25.75" stroke-dasharray="0 20.09" fill="none" stroke="#fff" stroke-linecap="round" stroke-miterlimit="10" stroke-width="5"/>
            <path fill="none" stroke="#fff" stroke-linecap="round" stroke-miterlimit="10" stroke-width="5" d="M2146 615.13h0M1402.55 570.89h0"/>
            <path d="M1422.65 569.62c237.77-14.59 475.53-15.41 713.3 25.75" stroke-dasharray="0 20.09" fill="none" stroke="#fff" stroke-linecap="round" stroke-miterlimit="10" stroke-width="5"/>
            <path fill="none" stroke="#fff" stroke-linecap="round" stroke-miterlimit="10" stroke-width="5" d="M2146 597.13h0M1402.55 552.89h0"/>
            <path d="M1422.65 551.62c237.77-14.59 475.53-15.41 713.3 25.75" stroke-dasharray="0 20.09" fill="none" stroke="#fff" stroke-linecap="round" stroke-miterlimit="10" stroke-width="5"/>
            <path fill="none" stroke="#fff" stroke-linecap="round" stroke-miterlimit="10" stroke-width="5" d="M2146 579.13h0M1402.55 534.89h0"/>
            <path d="M1422.65 533.62c237.77-14.59 475.53-15.41 713.3 25.75" stroke-dasharray="0 20.09" fill="none" stroke="#fff" stroke-linecap="round" stroke-miterlimit="10" stroke-width="5"/>
            <path fill="none" stroke="#fff" stroke-linecap="round" stroke-miterlimit="10" stroke-width="5" d="M2146 561.13h0M1402.55 516.89h0"/>
            <path d="M1422.65 515.62c237.77-14.59 475.53-15.41 713.3 25.75" stroke-dasharray="0 20.09" fill="none" stroke="#fff" stroke-linecap="round" stroke-miterlimit="10" stroke-width="5"/>
            <path fill="none" stroke="#fff" stroke-linecap="round" stroke-miterlimit="10" stroke-width="5" d="M2146 543.13h0M1402.55 498.89h0"/>
            <path d="M1422.65 497.62c237.77-14.59 475.53-15.41 713.3 25.75" stroke-dasharray="0 20.09" fill="none" stroke="#fff" stroke-linecap="round" stroke-miterlimit="10" stroke-width="5"/>
            <path fill="none" stroke="#fff" stroke-linecap="round" stroke-miterlimit="10" stroke-width="5" d="M2146 525.13h0M1402.55 480.89h0"/>
            <path d="M1422.65 479.62c237.77-14.59 475.53-15.41 713.3 25.75" stroke-dasharray="0 20.09" fill="none" stroke="#fff" stroke-linecap="round" stroke-miterlimit="10" stroke-width="5"/>
            <path fill="none" stroke="#fff" stroke-linecap="round" stroke-miterlimit="10" stroke-width="5" d="M2146 507.13h0M1402.55 462.89h0"/>
            <path d="M1422.65 461.62c237.77-14.59 475.53-15.41 713.3 25.75" stroke-dasharray="0 20.09" fill="none" stroke="#fff" stroke-linecap="round" stroke-miterlimit="10" stroke-width="5"/>
            <path fill="none" stroke="#fff" stroke-linecap="round" stroke-miterlimit="10" stroke-width="5" d="M2146 489.13h0M1402.55 444.89h0"/>
            <path d="M1422.65 443.62c237.77-14.59 475.53-15.41 713.3 25.75" stroke-dasharray="0 20.09" fill="none" stroke="#fff" stroke-linecap="round" stroke-miterlimit="10" stroke-width="5"/>
            <path fill="none" stroke="#fff" stroke-linecap="round" stroke-miterlimit="10" stroke-width="5" d="M2146 471.13h0M1402.55 426.89h0"/>
            <path d="M1422.65 425.62c237.77-14.59 475.53-15.41 713.3 25.75" stroke-dasharray="0 20.09" fill="none" stroke="#fff" stroke-linecap="round" stroke-miterlimit="10" stroke-width="5"/>
            <path fill="none" stroke="#fff" stroke-linecap="round" stroke-miterlimit="10" stroke-width="5" d="M2146 453.13h0M1402.55 408.89h0"/>
            <path d="M1422.65 407.62c237.77-14.59 475.53-15.41 713.3 25.75" stroke-dasharray="0 20.09" fill="none" stroke="#fff" stroke-linecap="round" stroke-miterlimit="10" stroke-width="5"/>
            <path fill="none" stroke="#fff" stroke-linecap="round" stroke-miterlimit="10" stroke-width="5" d="M2146 435.13h0M1402.55 390.89h0"/>
            <path d="M1422.65 389.62c237.77-14.59 475.53-15.41 713.3 25.75" stroke-dasharray="0 20.09" fill="none" stroke="#fff" stroke-linecap="round" stroke-miterlimit="10" stroke-width="5"/>
            <path fill="none" stroke="#fff" stroke-linecap="round" stroke-miterlimit="10" stroke-width="5" d="M2146 417.13h0M1402.55 372.89h0"/>
            <path d="M1422.65 371.62c237.77-14.59 475.53-15.41 713.3 25.75" stroke-dasharray="0 20.09" fill="none" stroke="#fff" stroke-linecap="round" stroke-miterlimit="10" stroke-width="5"/>
            <path fill="none" stroke="#fff" stroke-linecap="round" stroke-miterlimit="10" stroke-width="5" d="M2146 399.13h0M1402.55 354.89h0"/>
            <path d="M1422.65 353.62c237.77-14.59 475.53-15.41 713.3 25.75" stroke-dasharray="0 20.09" fill="none" stroke="#fff" stroke-linecap="round" stroke-miterlimit="10" stroke-width="5"/>
            <path fill="none" stroke="#fff" stroke-linecap="round" stroke-miterlimit="10" stroke-width="5" d="M2146 381.13h0M1402.55 336.89h0"/>
            <path d="M1422.65 335.62c237.77-14.59 475.53-15.41 713.3 25.75" stroke-dasharray="0 20.09" fill="none" stroke="#fff" stroke-linecap="round" stroke-miterlimit="10" stroke-width="5"/>
            <path fill="none" stroke="#fff" stroke-linecap="round" stroke-miterlimit="10" stroke-width="5" d="M2146 363.13h0M1402.55 318.89h0"/>
            <path d="M1422.65 317.62c237.77-14.59 475.53-15.41 713.3 25.75" stroke-dasharray="0 20.09" fill="none" stroke="#fff" stroke-linecap="round" stroke-miterlimit="10" stroke-width="5"/>
            <path fill="none" stroke="#fff" stroke-linecap="round" stroke-miterlimit="10" stroke-width="5" d="M2146 345.13h0M1402.55 300.89h0"/>
            <path d="M1422.65 299.62c237.77-14.59 475.53-15.41 713.3 25.75" stroke-dasharray="0 20.09" fill="none" stroke="#fff" stroke-linecap="round" stroke-miterlimit="10" stroke-width="5"/>
            <path fill="none" stroke="#fff" stroke-linecap="round" stroke-miterlimit="10" stroke-width="5" d="M2146 327.13h0M1402.55 282.89h0"/>
            <path d="M1422.65 281.62c237.77-14.59 475.53-15.41 713.3 25.75" stroke-dasharray="0 20.09" fill="none" stroke="#fff" stroke-linecap="round" stroke-miterlimit="10" stroke-width="5"/>
            <path fill="none" stroke="#fff" stroke-linecap="round" stroke-miterlimit="10" stroke-width="5" d="M2146 309.13h0M1402.55 264.89h0"/>
            <path d="M1422.65 263.62c237.77-14.59 475.53-15.41 713.3 25.75" stroke-dasharray="0 20.09" fill="none" stroke="#fff" stroke-linecap="round" stroke-miterlimit="10" stroke-width="5"/>
            <path fill="none" stroke="#fff" stroke-linecap="round" stroke-miterlimit="10" stroke-width="5" d="M2146 291.13h0M1402.55 246.89h0"/>
            <path d="M1422.65 245.62c237.77-14.59 475.53-15.41 713.3 25.75" stroke-dasharray="0 20.09" fill="none" stroke="#fff" stroke-linecap="round" stroke-miterlimit="10" stroke-width="5"/>
            <path fill="none" stroke="#fff" stroke-linecap="round" stroke-miterlimit="10" stroke-width="5" d="M2146 273.13h0M1402.55 228.89h0"/>
            <path d="M1422.65 227.62c237.77-14.59 475.53-15.41 713.3 25.75" stroke-dasharray="0 20.09" fill="none" stroke="#fff" stroke-linecap="round" stroke-miterlimit="10" stroke-width="5"/>
            <path fill="none" stroke="#fff" stroke-linecap="round" stroke-miterlimit="10" stroke-width="5" d="M2146 255.13h0M1402.55 210.89h0"/>
            <path d="M1422.65 209.62c237.77-14.59 475.53-15.41 713.3 25.75" stroke-dasharray="0 20.09" fill="none" stroke="#fff" stroke-linecap="round" stroke-miterlimit="10" stroke-width="5"/>
            <path fill="none" stroke="#fff" stroke-linecap="round" stroke-miterlimit="10" stroke-width="5" d="M2146 237.13h0M1402.55 192.89h0"/>
            <path d="M1422.65 191.62c237.77-14.59 475.53-15.41 713.3 25.75" stroke-dasharray="0 20.09" fill="none" stroke="#fff" stroke-linecap="round" stroke-miterlimit="10" stroke-width="5"/>
            <path fill="none" stroke="#fff" stroke-linecap="round" stroke-miterlimit="10" stroke-width="5" d="M2146 219.13h0M1402.55 174.89h0"/>
            <path d="M1422.65 173.62c237.77-14.59 475.53-15.41 713.3 25.75" stroke-dasharray="0 20.09" fill="none" stroke="#fff" stroke-linecap="round" stroke-miterlimit="10" stroke-width="5"/>
            <path fill="none" stroke="#fff" stroke-linecap="round" stroke-miterlimit="10" stroke-width="5" d="M2146 201.13h0M1402.55 156.89h0"/>
            <path d="M1422.65 155.62c237.77-14.59 475.53-15.41 713.3 25.75" stroke-dasharray="0 20.09" fill="none" stroke="#fff" stroke-linecap="round" stroke-miterlimit="10" stroke-width="5"/>
            <path fill="none" stroke="#fff" stroke-linecap="round" stroke-miterlimit="10" stroke-width="5" d="M2146 183.13h0M1402.55 138.89h0"/>
            <path d="M1422.65 137.62c237.77-14.59 475.53-15.41 713.3 25.75" stroke-dasharray="0 20.09" fill="none" stroke="#fff" stroke-linecap="round" stroke-miterlimit="10" stroke-width="5"/>
            <path fill="none" stroke="#fff" stroke-linecap="round" stroke-miterlimit="10" stroke-width="5" d="M2146 165.13h0M1402.55 120.89h0"/>
            <path d="M1422.65 119.62c237.77-14.59 475.53-15.41 713.3 25.75" stroke-dasharray="0 20.09" fill="none" stroke="#fff" stroke-linecap="round" stroke-miterlimit="10" stroke-width="5"/>
            <path fill="none" stroke="#fff" stroke-linecap="round" stroke-miterlimit="10" stroke-width="5" d="M2146 147.13h0M1402.55 102.89h0"/>
            <path d="M1422.65 101.62C1660.42 87 1898.18 86.21 2136 127.37" stroke-dasharray="0 20.09" fill="none" stroke="#fff" stroke-linecap="round" stroke-miterlimit="10" stroke-width="5"/>
            <path fill="none" stroke="#fff" stroke-linecap="round" stroke-miterlimit="10" stroke-width="5" d="M2146 129.13h0M1402.55 84.89h0"/>
            <path d="M1422.65 83.62C1660.42 69 1898.18 68.21 2136 109.37" stroke-dasharray="0 20.09" fill="none" stroke="#fff" stroke-linecap="round" stroke-miterlimit="10" stroke-width="5"/>
            <path fill="none" stroke="#fff" stroke-linecap="round" stroke-miterlimit="10" stroke-width="5" d="M2146 111.13h0M1402.55 66.89h0"/>
            <path d="M1422.65 65.62C1660.42 51 1898.18 50.21 2136 91.37" stroke-dasharray="0 20.09" fill="none" stroke="#fff" stroke-linecap="round" stroke-miterlimit="10" stroke-width="5"/>
            <path fill="none" stroke="#fff" stroke-linecap="round" stroke-miterlimit="10" stroke-width="5" d="M2146 93.13h0M1402.55 48.89h0"/>
            <path d="M1422.65 47.62C1660.42 33 1898.18 32.21 2136 73.37" stroke-dasharray="0 20.09" fill="none" stroke="#fff" stroke-linecap="round" stroke-miterlimit="10" stroke-width="5"/>
            <path fill="none" stroke="#fff" stroke-linecap="round" stroke-miterlimit="10" stroke-width="5" d="M2146 75.13h0M1402.55 30.89h0"/>
            <path d="M1422.65 29.62C1660.42 15 1898.18 14.21 2136 55.37" stroke-dasharray="0 20.09" fill="none" stroke="#fff" stroke-linecap="round" stroke-miterlimit="10" stroke-width="5"/>
            <path fill="none" stroke="#fff" stroke-linecap="round" stroke-miterlimit="10" stroke-width="5" d="M2146 57.13h0M1402.55 12.89h0"/>
            <path d="M1422.65 11.62C1660.42-3 1898.18-3.79 2136 37.37" stroke-dasharray="0 20.09" fill="none" stroke="#fff" stroke-linecap="round" stroke-miterlimit="10" stroke-width="5"/>
            <path fill="none" stroke="#fff" stroke-linecap="round" stroke-miterlimit="10" stroke-width="5" d="M2146 39.13h0"/>
        </g>
    </g>
</svg>
