<svg xmlns="http://www.w3.org/2000/svg" viewBox="0 0 2149 853.78">
    <g data-name="Layer 2">
        <g data-name="LAYOUT Edit">
            <path d="M2149 809.59C1433.67 656.72 718.33 961.81 3 810.23V44.83c715.33 151.59 1430.67-153.51 2146-.64z" fill="#fef6f7"/>
            <path fill="none" stroke="#fff" stroke-linecap="round" stroke-miterlimit="10" stroke-width="6" d="M3 804.83h0"/>
            <path d="M23.09 809c237.77 47.57 475.54 45.63 713.31 27.77" stroke-dasharray="0 20.09" fill="none" stroke="#fff" stroke-linecap="round" stroke-miterlimit="10" stroke-width="6"/>
            <path fill="none" stroke="#fff" stroke-linecap="round" stroke-miterlimit="10" stroke-width="6" d="M746.45 835.98h0M3 786.83h0"/>
            <path d="M23.09 791c237.77 47.57 475.54 45.63 713.31 27.77" stroke-dasharray="0 20.09" fill="none" stroke="#fff" stroke-linecap="round" stroke-miterlimit="10" stroke-width="6"/>
            <path fill="none" stroke="#fff" stroke-linecap="round" stroke-miterlimit="10" stroke-width="6" d="M746.45 817.98h0M3 768.83h0"/>
            <path d="M23.09 773c237.77 47.57 475.54 45.63 713.31 27.77" stroke-dasharray="0 20.09" fill="none" stroke="#fff" stroke-linecap="round" stroke-miterlimit="10" stroke-width="6"/>
            <path fill="none" stroke="#fff" stroke-linecap="round" stroke-miterlimit="10" stroke-width="6" d="M746.45 799.98h0M3 750.83h0"/>
            <path d="M23.09 755c237.77 47.57 475.54 45.63 713.31 27.77" stroke-dasharray="0 20.09" fill="none" stroke="#fff" stroke-linecap="round" stroke-miterlimit="10" stroke-width="6"/>
            <path fill="none" stroke="#fff" stroke-linecap="round" stroke-miterlimit="10" stroke-width="6" d="M746.45 781.98h0M3 732.83h0"/>
            <path d="M23.09 737c237.77 47.57 475.54 45.63 713.31 27.77" stroke-dasharray="0 20.09" fill="none" stroke="#fff" stroke-linecap="round" stroke-miterlimit="10" stroke-width="6"/>
            <path fill="none" stroke="#fff" stroke-linecap="round" stroke-miterlimit="10" stroke-width="6" d="M746.45 763.98h0M3 714.83h0"/>
            <path d="M23.09 719c237.77 47.57 475.54 45.63 713.31 27.77" stroke-dasharray="0 20.09" fill="none" stroke="#fff" stroke-linecap="round" stroke-miterlimit="10" stroke-width="6"/>
            <path fill="none" stroke="#fff" stroke-linecap="round" stroke-miterlimit="10" stroke-width="6" d="M746.45 745.98h0M3 696.83h0"/>
            <path d="M23.09 701c237.77 47.57 475.54 45.63 713.31 27.77" stroke-dasharray="0 20.09" fill="none" stroke="#fff" stroke-linecap="round" stroke-miterlimit="10" stroke-width="6"/>
            <path fill="none" stroke="#fff" stroke-linecap="round" stroke-miterlimit="10" stroke-width="6" d="M746.45 727.98h0M3 678.83h0"/>
            <path d="M23.09 683c237.77 47.57 475.54 45.63 713.31 27.77" stroke-dasharray="0 20.09" fill="none" stroke="#fff" stroke-linecap="round" stroke-miterlimit="10" stroke-width="6"/>
            <path fill="none" stroke="#fff" stroke-linecap="round" stroke-miterlimit="10" stroke-width="6" d="M746.45 709.98h0M3 660.83h0"/>
            <path d="M23.09 665c237.77 47.57 475.54 45.63 713.31 27.77" stroke-dasharray="0 20.09" fill="none" stroke="#fff" stroke-linecap="round" stroke-miterlimit="10" stroke-width="6"/>
            <path fill="none" stroke="#fff" stroke-linecap="round" stroke-miterlimit="10" stroke-width="6" d="M746.45 691.98h0M3 642.83h0"/>
            <path d="M23.09 647c237.77 47.57 475.54 45.63 713.31 27.77" stroke-dasharray="0 20.09" fill="none" stroke="#fff" stroke-linecap="round" stroke-miterlimit="10" stroke-width="6"/>
            <path fill="none" stroke="#fff" stroke-linecap="round" stroke-miterlimit="10" stroke-width="6" d="M746.45 673.98h0M3 624.83h0"/>
            <path d="M23.09 629c237.77 47.57 475.54 45.63 713.31 27.77" stroke-dasharray="0 20.09" fill="none" stroke="#fff" stroke-linecap="round" stroke-miterlimit="10" stroke-width="6"/>
            <path fill="none" stroke="#fff" stroke-linecap="round" stroke-miterlimit="10" stroke-width="6" d="M746.45 655.98h0M3 606.83h0"/>
            <path d="M23.09 611c237.77 47.57 475.54 45.63 713.31 27.77" stroke-dasharray="0 20.09" fill="none" stroke="#fff" stroke-linecap="round" stroke-miterlimit="10" stroke-width="6"/>
            <path fill="none" stroke="#fff" stroke-linecap="round" stroke-miterlimit="10" stroke-width="6" d="M746.45 637.98h0M3 588.83h0"/>
            <path d="M23.09 593c237.77 47.57 475.54 45.63 713.31 27.77" stroke-dasharray="0 20.09" fill="none" stroke="#fff" stroke-linecap="round" stroke-miterlimit="10" stroke-width="6"/>
            <path fill="none" stroke="#fff" stroke-linecap="round" stroke-miterlimit="10" stroke-width="6" d="M746.45 619.98h0M3 570.83h0"/>
            <path d="M23.09 575c237.77 47.57 475.54 45.63 713.31 27.77" stroke-dasharray="0 20.09" fill="none" stroke="#fff" stroke-linecap="round" stroke-miterlimit="10" stroke-width="6"/>
            <path fill="none" stroke="#fff" stroke-linecap="round" stroke-miterlimit="10" stroke-width="6" d="M746.45 601.98h0M3 552.83h0"/>
            <path d="M23.09 557c237.77 47.57 475.54 45.63 713.31 27.77" stroke-dasharray="0 20.09" fill="none" stroke="#fff" stroke-linecap="round" stroke-miterlimit="10" stroke-width="6"/>
            <path fill="none" stroke="#fff" stroke-linecap="round" stroke-miterlimit="10" stroke-width="6" d="M746.45 583.98h0M3 534.83h0"/>
            <path d="M23.09 539c237.77 47.57 475.54 45.63 713.31 27.77" stroke-dasharray="0 20.09" fill="none" stroke="#fff" stroke-linecap="round" stroke-miterlimit="10" stroke-width="6"/>
            <path fill="none" stroke="#fff" stroke-linecap="round" stroke-miterlimit="10" stroke-width="6" d="M746.45 565.98h0M3 516.83h0"/>
            <path d="M23.09 521c237.77 47.57 475.54 45.63 713.31 27.77" stroke-dasharray="0 20.09" fill="none" stroke="#fff" stroke-linecap="round" stroke-miterlimit="10" stroke-width="6"/>
            <path fill="none" stroke="#fff" stroke-linecap="round" stroke-miterlimit="10" stroke-width="6" d="M746.45 547.98h0M3 498.83h0"/>
            <path d="M23.09 503c237.77 47.57 475.54 45.63 713.31 27.77" stroke-dasharray="0 20.09" fill="none" stroke="#fff" stroke-linecap="round" stroke-miterlimit="10" stroke-width="6"/>
            <path fill="none" stroke="#fff" stroke-linecap="round" stroke-miterlimit="10" stroke-width="6" d="M746.45 529.98h0M3 480.83h0"/>
            <path d="M23.09 485c237.77 47.57 475.54 45.63 713.31 27.77" stroke-dasharray="0 20.09" fill="none" stroke="#fff" stroke-linecap="round" stroke-miterlimit="10" stroke-width="6"/>
            <path fill="none" stroke="#fff" stroke-linecap="round" stroke-miterlimit="10" stroke-width="6" d="M746.45 511.98h0M3 462.83h0"/>
            <path d="M23.09 467c237.77 47.57 475.54 45.63 713.31 27.77" stroke-dasharray="0 20.09" fill="none" stroke="#fff" stroke-linecap="round" stroke-miterlimit="10" stroke-width="6"/>
            <path fill="none" stroke="#fff" stroke-linecap="round" stroke-miterlimit="10" stroke-width="6" d="M746.45 493.98h0M3 444.83h0"/>
            <path d="M23.09 449c237.77 47.57 475.54 45.63 713.31 27.77" stroke-dasharray="0 20.09" fill="none" stroke="#fff" stroke-linecap="round" stroke-miterlimit="10" stroke-width="6"/>
            <path fill="none" stroke="#fff" stroke-linecap="round" stroke-miterlimit="10" stroke-width="6" d="M746.45 475.98h0M3 426.83h0"/>
            <path d="M23.09 431c237.77 47.57 475.54 45.63 713.31 27.77" stroke-dasharray="0 20.09" fill="none" stroke="#fff" stroke-linecap="round" stroke-miterlimit="10" stroke-width="6"/>
            <path fill="none" stroke="#fff" stroke-linecap="round" stroke-miterlimit="10" stroke-width="6" d="M746.45 457.98h0M3 408.83h0"/>
            <path d="M23.09 413c237.77 47.57 475.54 45.63 713.31 27.77" stroke-dasharray="0 20.09" fill="none" stroke="#fff" stroke-linecap="round" stroke-miterlimit="10" stroke-width="6"/>
            <path fill="none" stroke="#fff" stroke-linecap="round" stroke-miterlimit="10" stroke-width="6" d="M746.45 439.98h0M3 390.83h0"/>
            <path d="M23.09 395c237.77 47.57 475.54 45.63 713.31 27.77" stroke-dasharray="0 20.09" fill="none" stroke="#fff" stroke-linecap="round" stroke-miterlimit="10" stroke-width="6"/>
            <path fill="none" stroke="#fff" stroke-linecap="round" stroke-miterlimit="10" stroke-width="6" d="M746.45 421.98h0M3 372.83h0"/>
            <path d="M23.09 377c237.77 47.57 475.54 45.63 713.31 27.77" stroke-dasharray="0 20.09" fill="none" stroke="#fff" stroke-linecap="round" stroke-miterlimit="10" stroke-width="6"/>
            <path fill="none" stroke="#fff" stroke-linecap="round" stroke-miterlimit="10" stroke-width="6" d="M746.45 403.98h0M3 354.83h0"/>
            <path d="M23.09 359c237.77 47.57 475.54 45.63 713.31 27.77" stroke-dasharray="0 20.09" fill="none" stroke="#fff" stroke-linecap="round" stroke-miterlimit="10" stroke-width="6"/>
            <path fill="none" stroke="#fff" stroke-linecap="round" stroke-miterlimit="10" stroke-width="6" d="M746.45 385.98h0M3 336.83h0"/>
            <path d="M23.09 341c237.77 47.57 475.54 45.63 713.31 27.77" stroke-dasharray="0 20.09" fill="none" stroke="#fff" stroke-linecap="round" stroke-miterlimit="10" stroke-width="6"/>
            <path fill="none" stroke="#fff" stroke-linecap="round" stroke-miterlimit="10" stroke-width="6" d="M746.45 367.98h0M3 318.83h0"/>
            <path d="M23.09 323c237.77 47.57 475.54 45.63 713.31 27.77" stroke-dasharray="0 20.09" fill="none" stroke="#fff" stroke-linecap="round" stroke-miterlimit="10" stroke-width="6"/>
            <path fill="none" stroke="#fff" stroke-linecap="round" stroke-miterlimit="10" stroke-width="6" d="M746.45 349.98h0M3 300.83h0"/>
            <path d="M23.09 305c237.77 47.57 475.54 45.63 713.31 27.77" stroke-dasharray="0 20.09" fill="none" stroke="#fff" stroke-linecap="round" stroke-miterlimit="10" stroke-width="6"/>
            <path fill="none" stroke="#fff" stroke-linecap="round" stroke-miterlimit="10" stroke-width="6" d="M746.45 331.98h0M3 282.83h0"/>
            <path d="M23.09 287c237.77 47.57 475.54 45.63 713.31 27.77" stroke-dasharray="0 20.09" fill="none" stroke="#fff" stroke-linecap="round" stroke-miterlimit="10" stroke-width="6"/>
            <path fill="none" stroke="#fff" stroke-linecap="round" stroke-miterlimit="10" stroke-width="6" d="M746.45 313.98h0M3 264.83h0"/>
            <path d="M23.09 269c237.77 47.57 475.54 45.63 713.31 27.77" stroke-dasharray="0 20.09" fill="none" stroke="#fff" stroke-linecap="round" stroke-miterlimit="10" stroke-width="6"/>
            <path fill="none" stroke="#fff" stroke-linecap="round" stroke-miterlimit="10" stroke-width="6" d="M746.45 295.98h0M3 246.83h0"/>
            <path d="M23.09 251c237.77 47.57 475.54 45.63 713.31 27.77" stroke-dasharray="0 20.09" fill="none" stroke="#fff" stroke-linecap="round" stroke-miterlimit="10" stroke-width="6"/>
            <path fill="none" stroke="#fff" stroke-linecap="round" stroke-miterlimit="10" stroke-width="6" d="M746.45 277.98h0M3 228.83h0"/>
            <path d="M23.09 233c237.77 47.57 475.54 45.63 713.31 27.77" stroke-dasharray="0 20.09" fill="none" stroke="#fff" stroke-linecap="round" stroke-miterlimit="10" stroke-width="6"/>
            <path fill="none" stroke="#fff" stroke-linecap="round" stroke-miterlimit="10" stroke-width="6" d="M746.45 259.98h0M3 210.83h0"/>
            <path d="M23.09 215c237.77 47.57 475.54 45.63 713.31 27.77" stroke-dasharray="0 20.09" fill="none" stroke="#fff" stroke-linecap="round" stroke-miterlimit="10" stroke-width="6"/>
            <path fill="none" stroke="#fff" stroke-linecap="round" stroke-miterlimit="10" stroke-width="6" d="M746.45 241.98h0M3 192.83h0"/>
            <path d="M23.09 197c237.77 47.57 475.54 45.63 713.31 27.77" stroke-dasharray="0 20.09" fill="none" stroke="#fff" stroke-linecap="round" stroke-miterlimit="10" stroke-width="6"/>
            <path fill="none" stroke="#fff" stroke-linecap="round" stroke-miterlimit="10" stroke-width="6" d="M746.45 223.98h0M3 174.83h0"/>
            <path d="M23.09 179c237.77 47.57 475.54 45.63 713.31 27.77" stroke-dasharray="0 20.09" fill="none" stroke="#fff" stroke-linecap="round" stroke-miterlimit="10" stroke-width="6"/>
            <path fill="none" stroke="#fff" stroke-linecap="round" stroke-miterlimit="10" stroke-width="6" d="M746.45 205.98h0M3 156.83h0"/>
            <path d="M23.09 161c237.77 47.57 475.54 45.63 713.31 27.77" stroke-dasharray="0 20.09" fill="none" stroke="#fff" stroke-linecap="round" stroke-miterlimit="10" stroke-width="6"/>
            <path fill="none" stroke="#fff" stroke-linecap="round" stroke-miterlimit="10" stroke-width="6" d="M746.45 187.98h0M3 138.83h0"/>
            <path d="M23.09 143c237.77 47.57 475.54 45.63 713.31 27.77" stroke-dasharray="0 20.09" fill="none" stroke="#fff" stroke-linecap="round" stroke-miterlimit="10" stroke-width="6"/>
            <path fill="none" stroke="#fff" stroke-linecap="round" stroke-miterlimit="10" stroke-width="6" d="M746.45 169.98h0M3 120.83h0"/>
            <path d="M23.09 125c237.77 47.57 475.54 45.63 713.31 27.77" stroke-dasharray="0 20.09" fill="none" stroke="#fff" stroke-linecap="round" stroke-miterlimit="10" stroke-width="6"/>
            <path fill="none" stroke="#fff" stroke-linecap="round" stroke-miterlimit="10" stroke-width="6" d="M746.45 151.98h0M3 102.83h0"/>
            <path d="M23.09 107c237.77 47.57 475.54 45.63 713.31 27.77" stroke-dasharray="0 20.09" fill="none" stroke="#fff" stroke-linecap="round" stroke-miterlimit="10" stroke-width="6"/>
            <path fill="none" stroke="#fff" stroke-linecap="round" stroke-miterlimit="10" stroke-width="6" d="M746.45 133.98h0M3 84.83h0"/>
            <path d="M23.09 89c237.77 47.57 475.54 45.63 713.31 27.77" stroke-dasharray="0 20.09" fill="none" stroke="#fff" stroke-linecap="round" stroke-miterlimit="10" stroke-width="6"/>
            <path fill="none" stroke="#fff" stroke-linecap="round" stroke-miterlimit="10" stroke-width="6" d="M746.45 115.98h0M3 66.83h0"/>
            <path d="M23.09 71c237.77 47.54 475.54 45.6 713.31 27.74" stroke-dasharray="0 20.09" fill="none" stroke="#fff" stroke-linecap="round" stroke-miterlimit="10" stroke-width="6"/>
            <path fill="none" stroke="#fff" stroke-linecap="round" stroke-miterlimit="10" stroke-width="6" d="M746.45 97.98h0M3 48.83h0"/>
            <path d="M23.09 53c237.77 47.54 475.54 45.6 713.31 27.74" stroke-dasharray="0 20.09" fill="none" stroke="#fff" stroke-linecap="round" stroke-miterlimit="10" stroke-width="6"/>
            <path fill="none" stroke="#fff" stroke-linecap="round" stroke-miterlimit="10" stroke-width="6" d="M746.45 79.98h0"/>
        </g>
    </g>
</svg>
