<svg xmlns="http://www.w3.org/2000/svg" viewBox="0 0 1368.5 716.41">
            <path d="M1366 678.63c-455.33-126.82-910.67 128.91-1366 .7V39.58c455.33 128.21 910.67-127.51 1366-.7z" fill="#f4fafd"/>
            <path fill="none" stroke="#fff" stroke-linecap="round" stroke-miterlimit="10" stroke-width="5" d="M1012.55 634h0"/>
            <path d="M1032.19 633.26c108-3.41 216 4.16 324 32.94" stroke-dasharray="0 19.64" fill="none" stroke="#fff" stroke-linecap="round" stroke-miterlimit="10" stroke-width="5"/>
            <path d="M1366 668.88h0M1012.55 616h0" fill="none" stroke="#fff" stroke-linecap="round" stroke-miterlimit="10" stroke-width="5"/>
            <path d="M1032.19 615.26c108-3.41 216 4.16 324 32.94" stroke-dasharray="0 19.64" fill="none" stroke="#fff" stroke-linecap="round" stroke-miterlimit="10" stroke-width="5"/>
            <path d="M1366 650.88h0M1012.55 598h0" fill="none" stroke="#fff" stroke-linecap="round" stroke-miterlimit="10" stroke-width="5"/>
            <path d="M1032.19 597.26c108-3.41 216 4.16 324 32.94" stroke-dasharray="0 19.64" fill="none" stroke="#fff" stroke-linecap="round" stroke-miterlimit="10" stroke-width="5"/>
            <path d="M1366 632.88h0M1012.55 580h0" fill="none" stroke="#fff" stroke-linecap="round" stroke-miterlimit="10" stroke-width="5"/>
            <path d="M1032.19 579.26c108-3.41 216 4.16 324 32.94" stroke-dasharray="0 19.64" fill="none" stroke="#fff" stroke-linecap="round" stroke-miterlimit="10" stroke-width="5"/>
            <path d="M1366 614.88h0M1012.55 562h0" fill="none" stroke="#fff" stroke-linecap="round" stroke-miterlimit="10" stroke-width="5"/>
            <path d="M1032.19 561.26c108-3.41 216 4.16 324 32.94" stroke-dasharray="0 19.64" fill="none" stroke="#fff" stroke-linecap="round" stroke-miterlimit="10" stroke-width="5"/>
            <path d="M1366 596.88h0M1012.55 544h0" fill="none" stroke="#fff" stroke-linecap="round" stroke-miterlimit="10" stroke-width="5"/>
            <path d="M1032.19 543.26c108-3.41 216 4.16 324 32.94" stroke-dasharray="0 19.64" fill="none" stroke="#fff" stroke-linecap="round" stroke-miterlimit="10" stroke-width="5"/>
            <path fill="none" stroke="#fff" stroke-linecap="round" stroke-miterlimit="10" stroke-width="5" d="M1366 578.88h0M1012.55 526h0"/>
            <path d="M1032.19 525.26c108-3.41 216 4.16 324 32.94" stroke-dasharray="0 19.64" fill="none" stroke="#fff" stroke-linecap="round" stroke-miterlimit="10" stroke-width="5"/>
            <path fill="none" stroke="#fff" stroke-linecap="round" stroke-miterlimit="10" stroke-width="5" d="M1366 560.88h0M1012.55 508h0"/>
            <path d="M1032.19 507.26c108-3.41 216 4.16 324 32.94" stroke-dasharray="0 19.64" fill="none" stroke="#fff" stroke-linecap="round" stroke-miterlimit="10" stroke-width="5"/>
            <path fill="none" stroke="#fff" stroke-linecap="round" stroke-miterlimit="10" stroke-width="5" d="M1366 542.88h0M1012.55 490h0"/>
            <path d="M1032.19 489.26c108-3.41 216 4.16 324 32.94" stroke-dasharray="0 19.64" fill="none" stroke="#fff" stroke-linecap="round" stroke-miterlimit="10" stroke-width="5"/>
            <path fill="none" stroke="#fff" stroke-linecap="round" stroke-miterlimit="10" stroke-width="5" d="M1366 524.88h0M1012.55 472h0"/>
            <path d="M1032.19 471.26c108-3.41 216 4.16 324 32.94" stroke-dasharray="0 19.64" fill="none" stroke="#fff" stroke-linecap="round" stroke-miterlimit="10" stroke-width="5"/>
            <path fill="none" stroke="#fff" stroke-linecap="round" stroke-miterlimit="10" stroke-width="5" d="M1366 506.88h0M1012.55 454h0"/>
            <path d="M1032.19 453.26c108-3.41 216 4.16 324 32.94" stroke-dasharray="0 19.64" fill="none" stroke="#fff" stroke-linecap="round" stroke-miterlimit="10" stroke-width="5"/>
            <path fill="none" stroke="#fff" stroke-linecap="round" stroke-miterlimit="10" stroke-width="5" d="M1366 488.88h0M1012.55 436h0"/>
            <path d="M1032.19 435.26c108-3.41 216 4.16 324 32.94" stroke-dasharray="0 19.64" fill="none" stroke="#fff" stroke-linecap="round" stroke-miterlimit="10" stroke-width="5"/>
            <path fill="none" stroke="#fff" stroke-linecap="round" stroke-miterlimit="10" stroke-width="5" d="M1366 470.88h0M1012.55 418h0"/>
            <path d="M1032.19 417.26c108-3.41 216 4.16 324 32.94" stroke-dasharray="0 19.64" fill="none" stroke="#fff" stroke-linecap="round" stroke-miterlimit="10" stroke-width="5"/>
            <path fill="none" stroke="#fff" stroke-linecap="round" stroke-miterlimit="10" stroke-width="5" d="M1366 452.88h0M1012.55 400h0"/>
            <path d="M1032.19 399.26c108-3.41 216 4.16 324 32.94" stroke-dasharray="0 19.64" fill="none" stroke="#fff" stroke-linecap="round" stroke-miterlimit="10" stroke-width="5"/>
            <path fill="none" stroke="#fff" stroke-linecap="round" stroke-miterlimit="10" stroke-width="5" d="M1366 434.88h0M1012.55 382h0"/>
            <path d="M1032.19 381.26c108-3.41 216 4.16 324 32.94" stroke-dasharray="0 19.64" fill="none" stroke="#fff" stroke-linecap="round" stroke-miterlimit="10" stroke-width="5"/>
            <path fill="none" stroke="#fff" stroke-linecap="round" stroke-miterlimit="10" stroke-width="5" d="M1366 416.88h0M1012.55 364h0"/>
            <path d="M1032.19 363.26c108-3.41 216 4.16 324 32.94" stroke-dasharray="0 19.64" fill="none" stroke="#fff" stroke-linecap="round" stroke-miterlimit="10" stroke-width="5"/>
            <path fill="none" stroke="#fff" stroke-linecap="round" stroke-miterlimit="10" stroke-width="5" d="M1366 398.88h0M1012.55 346h0"/>
            <path d="M1032.19 345.26c108-3.41 216 4.16 324 32.94" stroke-dasharray="0 19.64" fill="none" stroke="#fff" stroke-linecap="round" stroke-miterlimit="10" stroke-width="5"/>
            <path fill="none" stroke="#fff" stroke-linecap="round" stroke-miterlimit="10" stroke-width="5" d="M1366 380.88h0M1012.55 328h0"/>
            <path d="M1032.19 327.26c108-3.41 216 4.16 324 32.94" stroke-dasharray="0 19.64" fill="none" stroke="#fff" stroke-linecap="round" stroke-miterlimit="10" stroke-width="5"/>
            <path fill="none" stroke="#fff" stroke-linecap="round" stroke-miterlimit="10" stroke-width="5" d="M1366 362.88h0M1012.55 310h0"/>
            <path d="M1032.19 309.26c108-3.41 216 4.16 324 32.94" stroke-dasharray="0 19.64" fill="none" stroke="#fff" stroke-linecap="round" stroke-miterlimit="10" stroke-width="5"/>
            <path fill="none" stroke="#fff" stroke-linecap="round" stroke-miterlimit="10" stroke-width="5" d="M1366 344.88h0M1012.55 292h0"/>
            <path d="M1032.19 291.26c108-3.41 216 4.16 324 32.94" stroke-dasharray="0 19.64" fill="none" stroke="#fff" stroke-linecap="round" stroke-miterlimit="10" stroke-width="5"/>
            <path fill="none" stroke="#fff" stroke-linecap="round" stroke-miterlimit="10" stroke-width="5" d="M1366 326.88h0M1012.55 274h0"/>
            <path d="M1032.19 273.26c108-3.41 216 4.16 324 32.94" stroke-dasharray="0 19.64" fill="none" stroke="#fff" stroke-linecap="round" stroke-miterlimit="10" stroke-width="5"/>
            <path fill="none" stroke="#fff" stroke-linecap="round" stroke-miterlimit="10" stroke-width="5" d="M1366 308.88h0M1012.55 256h0"/>
            <path d="M1032.19 255.26c108-3.41 216 4.16 324 32.94" stroke-dasharray="0 19.64" fill="none" stroke="#fff" stroke-linecap="round" stroke-miterlimit="10" stroke-width="5"/>
            <path fill="none" stroke="#fff" stroke-linecap="round" stroke-miterlimit="10" stroke-width="5" d="M1366 290.88h0M1012.55 238h0"/>
            <path d="M1032.19 237.26c108-3.41 216 4.16 324 32.94" stroke-dasharray="0 19.64" fill="none" stroke="#fff" stroke-linecap="round" stroke-miterlimit="10" stroke-width="5"/>
            <path fill="none" stroke="#fff" stroke-linecap="round" stroke-miterlimit="10" stroke-width="5" d="M1366 272.88h0M1012.55 220h0"/>
            <path d="M1032.19 219.26c108-3.41 216 4.16 324 32.94" stroke-dasharray="0 19.64" fill="none" stroke="#fff" stroke-linecap="round" stroke-miterlimit="10" stroke-width="5"/>
            <path fill="none" stroke="#fff" stroke-linecap="round" stroke-miterlimit="10" stroke-width="5" d="M1366 254.88h0M1012.55 202h0"/>
            <path d="M1032.19 201.26c108-3.41 216 4.16 324 32.94" stroke-dasharray="0 19.64" fill="none" stroke="#fff" stroke-linecap="round" stroke-miterlimit="10" stroke-width="5"/>
            <path fill="none" stroke="#fff" stroke-linecap="round" stroke-miterlimit="10" stroke-width="5" d="M1366 236.88h0M1012.55 184h0"/>
            <path d="M1032.19 183.26c108-3.41 216 4.16 324 32.94" stroke-dasharray="0 19.64" fill="none" stroke="#fff" stroke-linecap="round" stroke-miterlimit="10" stroke-width="5"/>
            <path fill="none" stroke="#fff" stroke-linecap="round" stroke-miterlimit="10" stroke-width="5" d="M1366 218.88h0M1012.55 166h0"/>
            <path d="M1032.19 165.26c108-3.41 216 4.16 324 32.94" stroke-dasharray="0 19.64" fill="none" stroke="#fff" stroke-linecap="round" stroke-miterlimit="10" stroke-width="5"/>
            <path fill="none" stroke="#fff" stroke-linecap="round" stroke-miterlimit="10" stroke-width="5" d="M1366 200.88h0M1012.55 148h0"/>
            <path d="M1032.19 147.26c108-3.41 216 4.16 324 32.94" stroke-dasharray="0 19.64" fill="none" stroke="#fff" stroke-linecap="round" stroke-miterlimit="10" stroke-width="5"/>
            <path fill="none" stroke="#fff" stroke-linecap="round" stroke-miterlimit="10" stroke-width="5" d="M1366 182.88h0M1012.55 130h0"/>
            <path d="M1032.19 129.26c108-3.41 216 4.16 324 32.94" stroke-dasharray="0 19.64" fill="none" stroke="#fff" stroke-linecap="round" stroke-miterlimit="10" stroke-width="5"/>
            <path fill="none" stroke="#fff" stroke-linecap="round" stroke-miterlimit="10" stroke-width="5" d="M1366 164.88h0M1012.55 112h0"/>
            <path d="M1032.19 111.26c108-3.41 216 4.16 324 32.94" stroke-dasharray="0 19.64" fill="none" stroke="#fff" stroke-linecap="round" stroke-miterlimit="10" stroke-width="5"/>
            <path fill="none" stroke="#fff" stroke-linecap="round" stroke-miterlimit="10" stroke-width="5" d="M1366 146.88h0M1012.55 94h0"/>
            <path d="M1032.19 93.26c108-3.41 216 4.16 324 32.94" stroke-dasharray="0 19.64" fill="none" stroke="#fff" stroke-linecap="round" stroke-miterlimit="10" stroke-width="5"/>
            <path fill="none" stroke="#fff" stroke-linecap="round" stroke-miterlimit="10" stroke-width="5" d="M1366 128.88h0M1012.55 76h0"/>
            <path d="M1032.19 75.26c108-3.41 216 4.16 324 32.94" stroke-dasharray="0 19.64" fill="none" stroke="#fff" stroke-linecap="round" stroke-miterlimit="10" stroke-width="5"/>
            <path fill="none" stroke="#fff" stroke-linecap="round" stroke-miterlimit="10" stroke-width="5" d="M1366 110.88h0M1012.55 58h0"/>
            <path d="M1032.19 57.26c108-3.41 216 4.16 324 32.94" stroke-dasharray="0 19.64" fill="none" stroke="#fff" stroke-linecap="round" stroke-miterlimit="10" stroke-width="5"/>
            <path fill="none" stroke="#fff" stroke-linecap="round" stroke-miterlimit="10" stroke-width="5" d="M1366 92.88h0M1012.55 40h0"/>
            <path d="M1032.19 39.26c108-3.41 216 4.16 324 32.94" stroke-dasharray="0 19.64" fill="none" stroke="#fff" stroke-linecap="round" stroke-miterlimit="10" stroke-width="5"/>
            <path fill="none" stroke="#fff" stroke-linecap="round" stroke-miterlimit="10" stroke-width="5" d="M1366 74.88h0M1012.55 22h0"/>
            <path d="M1032.19 21.26c108-3.41 216 4.16 324 32.94" stroke-dasharray="0 19.64" fill="none" stroke="#fff" stroke-linecap="round" stroke-miterlimit="10" stroke-width="5"/>
            <path fill="none" stroke="#fff" stroke-linecap="round" stroke-miterlimit="10" stroke-width="5" d="M1366 56.88h0M1012.55 4h0"/>
            <path d="M1032.19 3.26c108-3.41 216 4.16 324 32.94" stroke-dasharray="0 19.64" fill="none" stroke="#fff" stroke-linecap="round" stroke-miterlimit="10" stroke-width="5"/>
            <path fill="none" stroke="#fff" stroke-linecap="round" stroke-miterlimit="10" stroke-width="5" d="M1366 38.88h0"/>
</svg>
