<svg xmlns="http://www.w3.org/2000/svg" viewBox="0 0 2500 1859.05">
    <g data-name="Layer 2">
        <g data-name="LAYOUT Edit">
            <path d="M2498.64 1762.83c-832.88-333.32-1665.76 333.31-2498.64 0V99.9c832.88 333.31 1665.76-333.32 2498.64 0z" fill="#fef7f7"/>
            <path d="M2497.28 1749.54c-103.08-41.25-208.53-68.48-322.37-83.25-100.86-13.09-206.37-16-322.56-9l-.44-7.3c116.65-7 222.62-4.07 323.94 9.07 114.46 14.85 220.49 42.23 324.15 83.72z" fill="#fff"/>
            <path d="M2497.28 1716.62c-103.08-41.26-208.53-68.49-322.37-83.26-100.86-13.08-206.37-16-322.56-9l-.44-7.3c116.65-7 222.62-4.07 323.94 9.08 114.46 14.84 220.49 42.23 324.15 83.71z" fill="#fff"/>
            <path d="M2497.28 1683.69c-103.08-41.25-208.53-68.48-322.37-83.25-100.86-13.09-206.37-16-322.56-9l-.44-7.3c116.65-7 222.62-4.07 323.94 9.07 114.46 14.85 220.49 42.23 324.15 83.72z" fill="#fff"/>
            <path d="M2497.28 1650.77c-103.08-41.26-208.53-68.49-322.37-83.26-100.86-13.08-206.37-16-322.56-9l-.44-7.3c116.65-7 222.62-4.07 323.94 9.08 114.46 14.85 220.49 42.23 324.15 83.71z" fill="#fff"/>
            <path d="M2497.28 1617.84c-103.08-41.25-208.53-68.48-322.37-83.25-100.86-13.09-206.37-16-322.56-9l-.44-7.3c116.65-7 222.62-4.07 323.94 9.07 114.46 14.85 220.49 42.23 324.15 83.72z" fill="#fff"/>
            <path d="M2497.28 1584.92c-103.08-41.26-208.53-68.49-322.37-83.26-100.86-13.08-206.37-16-322.56-9l-.44-7.3c116.65-7 222.62-4.07 323.94 9.08 114.46 14.85 220.49 42.23 324.15 83.71z" fill="#fff"/>
            <path d="M2497.28 1552c-103.08-41.25-208.53-68.48-322.37-83.25-100.86-13.09-206.37-16-322.56-9l-.44-7.3c116.65-7 222.62-4.07 323.94 9.07 114.46 14.85 220.49 42.23 324.15 83.72z" fill="#fff"/>
            <path d="M2497.28 1519.07c-103.08-41.26-208.53-68.49-322.37-83.26-100.86-13.08-206.37-16-322.56-9l-.44-7.3c116.65-7 222.62-4.07 323.94 9.08 114.46 14.85 220.49 42.23 324.15 83.71z" fill="#fff"/>
            <path d="M2497.28 1486.14c-103.08-41.25-208.53-68.48-322.37-83.25-100.86-13.09-206.37-16-322.56-9l-.44-7.3c116.65-7 222.62-4.07 323.94 9.07 114.46 14.85 220.49 42.23 324.15 83.72z" fill="#fff"/>
            <path d="M2497.28 1453.22c-103.08-41.26-208.53-68.49-322.37-83.26-100.86-13.08-206.37-16-322.56-9l-.44-7.3c116.65-7 222.62-4.07 323.94 9.08 114.46 14.85 220.49 42.23 324.15 83.72z" fill="#fff"/>
            <path d="M2497.28 1420.29c-103.08-41.25-208.53-68.48-322.37-83.25-100.86-13.09-206.37-16-322.56-9l-.44-7.3c116.65-7 222.62-4.07 323.94 9.07 114.46 14.85 220.49 42.23 324.15 83.72z" fill="#fff"/>
            <path d="M2497.28 1387.37c-103.08-41.26-208.53-68.49-322.37-83.26-100.86-13.08-206.37-16-322.56-9l-.44-7.3c116.65-7 222.62-4.07 323.94 9.08 114.46 14.85 220.49 42.23 324.15 83.72z" fill="#fff"/>
            <path d="M2497.28 1354.44c-103.08-41.25-208.53-68.48-322.37-83.25-100.86-13.09-206.37-16-322.56-9l-.44-7.3c116.65-7 222.62-4.07 323.94 9.07 114.46 14.85 220.49 42.23 324.15 83.72z" fill="#fff"/>
            <path d="M2497.28 1321.52c-103.08-41.26-208.53-68.49-322.37-83.26-100.86-13.08-206.37-16-322.56-9l-.44-7.3c116.65-7 222.62-4.07 323.94 9.08 114.46 14.85 220.49 42.23 324.15 83.72z" fill="#fff"/>
            <path d="M2497.28 1288.59c-103.08-41.25-208.53-68.48-322.37-83.25-100.86-13.09-206.37-16-322.56-9l-.44-7.3c116.65-7 222.62-4.07 323.94 9.07 114.46 14.85 220.49 42.23 324.15 83.72z" fill="#fff"/>
            <path d="M2497.28 1255.67c-103.08-41.26-208.53-68.49-322.37-83.26-100.86-13.08-206.37-16-322.56-9l-.44-7.3c116.65-7 222.62-4.07 323.94 9.08 114.46 14.85 220.49 42.23 324.15 83.72z" fill="#fff"/>
            <path d="M2497.28 1222.74c-103.08-41.25-208.53-68.48-322.37-83.25-100.86-13.09-206.37-16-322.56-9l-.44-7.3c116.65-7 222.62-4.07 323.94 9.07 114.46 14.85 220.49 42.23 324.15 83.72z" fill="#fff"/>
            <path d="M2497.28 1189.82c-103.08-41.26-208.53-68.49-322.37-83.26-100.86-13.08-206.37-16-322.56-9l-.44-7.3c116.65-7 222.62-4.07 323.94 9.08 114.46 14.85 220.49 42.23 324.15 83.72z" fill="#fff"/>
            <path d="M2497.28 1156.89c-103.08-41.25-208.53-68.48-322.37-83.25-100.86-13.09-206.37-16-322.56-9l-.44-7.3c116.65-7 222.62-4.07 323.94 9.07 114.46 14.85 220.49 42.23 324.15 83.72z" fill="#fff"/>
            <path d="M2497.28 1124c-103.08-41.26-208.53-68.49-322.37-83.26-100.86-13.08-206.37-16-322.56-9l-.44-7.3c116.65-7 222.62-4.07 323.94 9.08 114.46 14.85 220.49 42.23 324.15 83.72z" fill="#fff"/>
            <path d="M2497.28 1091c-103.08-41.25-208.53-68.48-322.37-83.25-100.86-13.09-206.37-16-322.56-9l-.44-7.3c116.65-7 222.62-4.07 323.94 9.07 114.46 14.85 220.49 42.23 324.15 83.72z" fill="#fff"/>
            <path d="M2497.28 1058.12c-103.08-41.26-208.53-68.49-322.37-83.26-100.86-13.08-206.37-16-322.56-9l-.44-7.3c116.65-7 222.62-4.07 323.94 9.08 114.46 14.85 220.49 42.23 324.15 83.72z" fill="#fff"/>
            <path d="M2497.28 1025.19c-103.08-41.25-208.53-68.48-322.37-83.25-100.86-13.09-206.37-16-322.56-9l-.44-7.3c116.65-7 222.62-4.07 323.94 9.07 114.46 14.85 220.49 42.24 324.15 83.72z" fill="#fff"/>
            <path d="M2497.28 992.27C2394.2 951 2288.75 923.78 2174.91 909c-100.86-13.08-206.37-16-322.56-9l-.44-7.3c116.65-7 222.62-4.07 323.94 9.08 114.46 14.83 220.49 42.22 324.15 83.7z" fill="#fff"/>
            <path d="M2497.28 959.34c-103.08-41.25-208.53-68.48-322.37-83.25-100.86-13.09-206.37-16-322.56-9l-.44-7.3c116.65-7 222.62-4.07 323.94 9.07 114.46 14.85 220.49 42.24 324.15 83.72z" fill="#fff"/>
            <path d="M2497.28 926.42c-103.08-41.26-208.53-68.49-322.37-83.26-100.86-13.08-206.37-16-322.56-9l-.44-7.3c116.65-7 222.62-4.07 323.94 9.08 114.46 14.84 220.49 42.23 324.15 83.72z" fill="#fff"/>
            <path d="M2497.28 893.49c-103.08-41.25-208.53-68.48-322.37-83.25-100.86-13.09-206.37-16-322.56-9l-.44-7.3c116.65-7 222.62-4.08 323.94 9.07 114.46 14.85 220.49 42.23 324.15 83.72z" fill="#fff"/>
            <path d="M2497.28 860.57c-103.08-41.26-208.53-68.49-322.37-83.26-100.86-13.08-206.37-16-322.56-9l-.44-7.3c116.65-7 222.62-4.07 323.94 9.08 114.46 14.84 220.49 42.23 324.15 83.72z" fill="#fff"/>
            <path d="M2497.28 827.64c-103.08-41.25-208.53-68.48-322.37-83.25-100.86-13.09-206.37-16-322.56-9l-.44-7.3c116.65-7 222.62-4.08 323.94 9.07 114.46 14.84 220.49 42.2 324.15 83.69z" fill="#fff"/>
            <path d="M2497.28 794.72c-103.08-41.26-208.53-68.49-322.37-83.26-100.86-13.08-206.37-16-322.56-9l-.44-7.3c116.65-7 222.62-4.07 323.94 9.08 114.46 14.84 220.49 42.23 324.15 83.72z" fill="#fff"/>
            <path d="M2497.28 761.79c-103.08-41.25-208.53-68.48-322.37-83.25-100.86-13.09-206.37-16-322.56-9l-.44-7.3c116.65-7 222.62-4.08 323.94 9.07 114.46 14.82 220.49 42.2 324.15 83.69z" fill="#fff"/>
            <path d="M2497.28 728.87c-103.08-41.26-208.53-68.49-322.37-83.26-100.86-13.08-206.37-16-322.56-9l-.44-7.3c116.65-7 222.62-4.07 323.94 9.08 114.46 14.84 220.49 42.23 324.15 83.72z" fill="#fff"/>
            <path d="M2497.28 695.94c-103.08-41.25-208.53-68.48-322.37-83.25-100.86-13.09-206.37-16-322.56-9l-.44-7.3c116.65-7 222.62-4.08 323.94 9.07 114.46 14.85 220.49 42.23 324.15 83.72z" fill="#fff"/>
            <path d="M2497.28 663c-103.08-41.26-208.53-68.49-322.37-83.26-100.86-13.08-206.37-16-322.56-9l-.44-7.3c116.65-7 222.62-4.07 323.94 9.08 114.46 14.84 220.49 42.23 324.15 83.72z" fill="#fff"/>
            <path d="M2497.28 630.09c-103.08-41.25-208.53-68.48-322.37-83.25-100.86-13.09-206.37-16-322.56-9l-.44-7.3c116.65-7 222.62-4.08 323.94 9.07 114.46 14.85 220.49 42.23 324.15 83.72z" fill="#fff"/>
            <path d="M2497.28 597.17c-103.08-41.26-208.53-68.49-322.37-83.26-100.86-13.08-206.37-16-322.56-9l-.44-7.3c116.65-7 222.62-4.07 323.94 9.08 114.46 14.84 220.49 42.23 324.15 83.72z" fill="#fff"/>
            <path d="M2497.28 564.24C2394.2 523 2288.75 495.76 2174.91 481c-100.86-13.09-206.37-16-322.56-9l-.44-7.3c116.65-7 222.62-4.08 323.94 9.07 114.46 14.81 220.49 42.23 324.15 83.68z" fill="#fff"/>
            <path d="M2497.28 531.32c-103.08-41.26-208.53-68.49-322.37-83.26-100.86-13.08-206.37-16-322.56-9l-.44-7.3c116.65-7 222.62-4.07 323.94 9.08 114.46 14.81 220.49 42.16 324.15 83.69z" fill="#fff"/>
            <path d="M2497.28 498.39c-103.08-41.25-208.53-68.48-322.37-83.25-100.86-13.09-206.37-16-322.56-9l-.44-7.3c116.65-7 222.62-4.08 323.94 9.07 114.46 14.85 220.49 42.23 324.15 83.72z" fill="#fff"/>
            <path d="M2497.28 465.47c-103.08-41.26-208.53-68.49-322.37-83.26-100.86-13.08-206.37-16-322.56-9l-.44-7.3c116.65-7 222.62-4.07 323.94 9.08 114.46 14.84 220.49 42.23 324.15 83.72z" fill="#fff"/>
            <path d="M2497.28 432.54c-103.08-41.25-208.53-68.48-322.37-83.25-100.86-13.09-206.37-16-322.56-9l-.44-7.3c116.65-7 222.62-4.07 323.94 9.07 114.46 14.85 220.49 42.23 324.15 83.72z" fill="#fff"/>
            <path d="M2497.28 399.62c-103.08-41.26-208.53-68.49-322.37-83.26-100.86-13.08-206.37-16-322.56-9l-.44-7.3c116.65-7 222.62-4.07 323.94 9.08 114.46 14.86 220.49 42.2 324.15 83.69z" fill="#fff"/>
            <path d="M2497.28 366.69c-103.08-41.25-208.53-68.48-322.37-83.25-100.86-13.09-206.37-16-322.56-9l-.44-7.3c116.65-7 222.62-4.07 323.94 9.07 114.46 14.79 220.49 42.2 324.15 83.69z" fill="#fff"/>
            <path d="M2497.28 333.77c-103.08-41.26-208.53-68.49-322.37-83.26-100.86-13.08-206.37-16-322.56-9l-.44-7.3c116.65-7 222.62-4.07 323.94 9.08 114.46 14.82 220.49 42.2 324.15 83.71z" fill="#fff"/>
            <path d="M2497.28 300.84c-103.08-41.25-208.53-68.48-322.37-83.25-100.86-13.09-206.37-16-322.56-9l-.44-7.3c116.65-7 222.62-4.08 323.94 9.07 114.46 14.85 220.49 42.23 324.15 83.72z" fill="#fff"/>
            <path d="M2497.28 267.92c-103.08-41.26-208.53-68.49-322.37-83.26-100.86-13.08-206.37-16-322.56-9l-.44-7.3c116.65-7 222.62-4.07 323.94 9.08 114.46 14.84 220.49 42.23 324.15 83.72z" fill="#fff"/>
            <path d="M2497.28 235c-103.08-41.25-208.53-68.48-322.37-83.25-100.86-13.09-206.37-16-322.56-9l-.44-7.3c116.65-7 222.62-4.07 323.94 9.07 114.46 14.85 220.49 42.24 324.15 83.72z" fill="#fff"/>
            <path d="M2497.28 202.07c-103.08-41.26-208.53-68.49-322.37-83.26-100.86-13.08-206.37-16-322.56-9l-.44-7.3c116.65-7 222.62-4.07 323.94 9.08 114.46 14.85 220.49 42.23 324.15 83.72z" fill="#fff"/>
            <path d="M2497.28 169.14c-103.08-41.25-208.53-68.48-322.37-83.25-100.86-13.09-206.37-16-322.56-9l-.44-7.3c116.65-7 222.62-4.07 323.94 9.07 114.46 14.85 220.49 42.24 324.15 83.72z" fill="#fff"/>
            <path d="M2497.28 136.22C2394.2 95 2288.75 67.73 2174.91 53c-100.86-13.08-206.37-16-322.56-9l-.44-7.3c116.65-7 222.62-4.07 323.94 9.08 114.46 14.85 220.49 42.23 324.15 83.72z" fill="#fff"/>
            <path d="M2497.28 103.29C2394.2 62 2288.75 34.81 2174.91 20c-100.86-13-206.37-16-322.56-9l-.44-7.3c116.65-7 222.62-4.07 323.94 9.07C2290.31 27.63 2396.34 55 2500 96.5z" fill="#fff"/>
        </g>
    </g>
</svg>
