<svg xmlns="http://www.w3.org/2000/svg" viewBox="0 0 1366.74 1016.33">
            <path d="M1366 963.72C910.67 781.5 455.33 1146 0 963.72V54.6c455.33 182.23 910.67-182.22 1366 0z" fill="#fef7f7"/>
            <path d="M1012.55 904c117.82-7.11 235.63 3.44 353.45 50.59M1012.55 886c117.82-7.11 235.63 3.44 353.45 50.59M1012.55 868c117.82-7.11 235.63 3.44 353.45 50.59M1012.55 850c117.82-7.11 235.63 3.44 353.45 50.59M1012.55 832c117.82-7.11 235.63 3.44 353.45 50.59M1012.55 814c117.82-7.11 235.63 3.44 353.45 50.59M1012.55 796c117.82-7.11 235.63 3.44 353.45 50.59M1012.55 778c117.82-7.11 235.63 3.44 353.45 50.59M1012.55 760c117.82-7.11 235.63 3.44 353.45 50.59M1012.55 742c117.82-7.11 235.63 3.44 353.45 50.59M1012.55 724c117.82-7.11 235.63 3.44 353.45 50.59M1012.55 706c117.82-7.11 235.63 3.44 353.45 50.59M1012.55 688c117.82-7.11 235.63 3.44 353.45 50.59M1012.55 670c117.82-7.11 235.63 3.44 353.45 50.59M1012.55 652c117.82-7.11 235.63 3.44 353.45 50.59M1012.55 634c117.82-7.11 235.63 3.44 353.45 50.59M1012.55 616c117.82-7.11 235.63 3.44 353.45 50.59M1012.55 598c117.82-7.11 235.63 3.44 353.45 50.59M1012.55 580c117.82-7.11 235.63 3.44 353.45 50.59M1012.55 562c117.82-7.11 235.63 3.44 353.45 50.59M1012.55 544c117.82-7.11 235.63 3.44 353.45 50.59M1012.55 526c117.82-7.11 235.63 3.44 353.45 50.59M1012.55 508c117.82-7.11 235.63 3.44 353.45 50.59M1012.55 490c117.82-7.11 235.63 3.44 353.45 50.59M1012.55 472c117.82-7.11 235.63 3.44 353.45 50.59M1012.55 454c117.82-7.11 235.63 3.44 353.45 50.59M1012.55 436c117.82-7.11 235.63 3.44 353.45 50.59M1012.55 418c117.82-7.11 235.63 3.44 353.45 50.59M1012.55 400c117.82-7.11 235.63 3.44 353.45 50.59M1012.55 382c117.82-7.11 235.63 3.44 353.45 50.59M1012.55 364c117.82-7.11 235.63 3.44 353.45 50.59M1012.55 346c117.82-7.11 235.63 3.44 353.45 50.59M1012.55 328c117.82-7.11 235.63 3.44 353.45 50.59M1012.55 310c117.82-7.11 235.63 3.44 353.45 50.59M1012.55 292c117.82-7.11 235.63 3.44 353.45 50.59M1012.55 274c117.82-7.11 235.63 3.44 353.45 50.59M1012.55 256c117.82-7.11 235.63 3.44 353.45 50.59M1012.55 238c117.82-7.11 235.63 3.44 353.45 50.59M1012.55 220c117.82-7.11 235.63 3.44 353.45 50.59M1012.55 202c117.82-7.11 235.63 3.44 353.45 50.59M1012.55 184c117.82-7.11 235.63 3.44 353.45 50.59M1012.55 166c117.82-7.11 235.63 3.44 353.45 50.59M1012.55 148c117.82-7.11 235.63 3.44 353.45 50.59M1012.55 130c117.82-7.11 235.63 3.44 353.45 50.59M1012.55 112c117.82-7.11 235.63 3.44 353.45 50.59M1012.55 94c117.82-7.11 235.63 3.44 353.45 50.59M1012.55 76c117.82-7.11 235.63 3.44 353.45 50.59M1012.55 58c117.82-7.11 235.63 3.44 353.45 50.59M1012.55 40c117.82-7.1 235.63 3.45 353.45 50.6M1012.55 22c117.82-7.1 235.63 3.45 353.45 50.6M1012.55 4c117.82-7.1 235.63 3.45 353.45 50.6" fill="none" stroke="#fff" stroke-miterlimit="10" stroke-width="4"/>
</svg>
