<svg xmlns="http://www.w3.org/2000/svg" viewBox="0 0 2146.3 610.16">
    <g data-name="Layer 2">
        <g data-name="LAYOUT Edit">
            <path d="M2146.3 565C1431 455.61 715.64 674.41.3 565V31.58c715.34 109.4 1430.67-109.4 2146 0z" fill="#f4fafd"/>
            <path d="M.3 576.58C258.12 616 515.93 612.81 773.75 597.7M.3 558.58C258.12 598 515.93 594.81 773.75 579.7M.3 540.58C258.12 580 515.93 576.81 773.75 561.7M.3 522.58C258.12 562 515.93 558.81 773.75 543.7M.3 504.58C258.12 544 515.93 540.81 773.75 525.7M.3 486.58C258.12 526 515.93 522.81 773.75 507.7M.3 468.58C258.12 508 515.93 504.81 773.75 489.7M.3 450.58C258.12 490 515.93 486.81 773.75 471.7M.3 432.58C258.12 472 515.93 468.81 773.75 453.7M.3 414.58C258.12 454 515.93 450.81 773.75 435.7M.3 396.58C258.12 436 515.93 432.81 773.75 417.7M.3 378.58C258.12 418 515.93 414.81 773.75 399.7M.3 360.58C258.12 400 515.93 396.81 773.75 381.7M.3 342.58C258.12 382 515.93 378.81 773.75 363.7M.3 324.58C258.12 364 515.93 360.81 773.75 345.7M.3 306.58C258.12 346 515.93 342.81 773.75 327.7M.3 288.58C258.12 328 515.93 324.81 773.75 309.7M.3 270.58C258.12 310 515.93 306.81 773.75 291.7M.3 252.58C258.12 292 515.93 288.81 773.75 273.7M.3 234.58C258.12 274 515.93 270.81 773.75 255.7M.3 216.58C258.12 256 515.93 252.81 773.75 237.7M.3 198.58C258.12 238 515.93 234.81 773.75 219.7M.3 180.58C258.12 220 515.93 216.81 773.75 201.7M.3 162.58C258.12 202 515.93 198.81 773.75 183.7M.3 144.58C258.12 184 515.93 180.81 773.75 165.7M.3 126.58C258.12 166 515.93 162.81 773.75 147.7M.3 108.58C258.12 148 515.93 144.81 773.75 129.7M.3 90.58C258.12 130 515.93 126.81 773.75 111.7M.3 72.58C258.12 112 515.93 108.81 773.75 93.7M.3 54.58C258.12 94 515.93 90.81 773.75 75.7M.3 36.58C258.12 76 515.93 72.81 773.75 57.7" fill="none" stroke="#fff" stroke-miterlimit="10" stroke-width="4"/>
        </g>
    </g>
</svg>
