<svg xmlns="http://www.w3.org/2000/svg" viewBox="0 0 2500 1116.34">
    <g data-name="Layer 2">
        <g data-name="LAYOUT Edit">
            <path d="M2500 1033.7c-833-200.15-1666.1 200.16-2499.15 0V57.78C833.9 257.93 1667-142.37 2500 57.78z" fill="#f4fafd"/>
            <path d="M527.76 1116.34c-194.94 0-365-18.8-527.76-57.91l1.71-7.11c194.58 46.75 399.74 64.38 645.66 55.47l.26 7.31q-61.54 2.24-119.87 2.24z" fill="#fff"/>
            <path d="M527.76 1083.4c-194.94 0-365-18.79-527.76-57.9l1.71-7.11c194.58 46.75 399.74 64.38 645.66 55.46l.26 7.32q-61.54 2.22-119.87 2.23z" fill="#fff"/>
            <path d="M527.76 1050.47c-194.94 0-365-18.79-527.76-57.9l1.71-7.12c194.58 46.76 399.74 64.38 645.66 55.47l.26 7.32q-61.54 2.22-119.87 2.23z" fill="#fff"/>
            <path d="M527.76 1017.54c-194.94 0-365-18.8-527.76-57.9l1.71-7.12c194.58 46.75 399.74 64.38 645.66 55.47l.26 7.31q-61.54 2.24-119.87 2.24z" fill="#fff"/>
            <path d="M527.76 984.61c-194.94 0-365-18.8-527.76-57.9l1.71-7.12c194.58 46.75 399.74 64.41 645.66 55.47l.26 7.31q-61.54 2.24-119.87 2.24z" fill="#fff"/>
            <path d="M527.76 951.68c-194.94 0-365-18.8-527.76-57.9l1.71-7.12c194.58 46.75 399.74 64.34 645.66 55.47l.26 7.31q-61.54 2.24-119.87 2.24z" fill="#fff"/>
            <path d="M527.76 918.75c-194.94 0-365-18.8-527.76-57.91l1.71-7.11c194.58 46.75 399.74 64.38 645.66 55.47l.26 7.31q-61.54 2.24-119.87 2.24z" fill="#fff"/>
            <path d="M527.76 885.81c-194.94 0-365-18.79-527.76-57.9l1.71-7.11c194.58 46.75 399.74 64.37 645.66 55.47l.26 7.31q-61.54 2.22-119.87 2.23z" fill="#fff"/>
            <path d="M527.76 852.88c-194.94 0-365-18.79-527.76-57.9l1.71-7.12c194.58 46.76 399.74 64.38 645.66 55.47l.26 7.32q-61.54 2.22-119.87 2.23z" fill="#fff"/>
            <path d="M527.76 820c-194.94 0-365-18.79-527.76-57.9l1.71-7.12c194.58 46.75 399.74 64.38 645.66 55.47l.26 7.32q-61.54 2.17-119.87 2.23z" fill="#fff"/>
            <path d="M527.76 787c-194.94 0-365-18.8-527.76-57.9l1.71-7.1c194.58 46.75 399.74 64.38 645.66 55.47l.26 7.31Q586.09 787 527.76 787z" fill="#fff"/>
            <path d="M527.76 754.09c-194.94 0-365-18.8-527.76-57.9l1.71-7.12c194.58 46.75 399.74 64.38 645.66 55.47l.26 7.31q-61.54 2.24-119.87 2.24z" fill="#fff"/>
            <path d="M527.76 721.16c-194.94 0-365-18.8-527.76-57.91l1.71-7.11c194.58 46.75 399.74 64.37 645.66 55.47l.26 7.31q-61.54 2.24-119.87 2.24z" fill="#fff"/>
            <path d="M527.76 688.23c-194.94 0-365-18.8-527.76-57.91l1.71-7.11c194.58 46.79 399.74 64.37 645.66 55.47l.26 7.31q-61.54 2.24-119.87 2.24z" fill="#fff"/>
            <path d="M527.76 655.29c-194.94 0-365-18.79-527.76-57.9l1.71-7.12C196.3 637 401.46 654.65 647.37 645.74l.26 7.32q-61.54 2.22-119.87 2.23z" fill="#fff"/>
            <path d="M527.76 622.36c-194.94 0-365-18.79-527.76-57.9l1.71-7.12c194.59 46.75 399.75 64.38 645.66 55.47l.26 7.32q-61.54 2.22-119.87 2.23z" fill="#fff"/>
            <path d="M527.76 589.43c-194.94 0-365-18.8-527.76-57.9l1.71-7.12c194.59 46.75 399.75 64.38 645.66 55.47l.26 7.31q-61.54 2.23-119.87 2.24z" fill="#fff"/>
            <path d="M527.76 556.5c-194.94 0-365-18.8-527.76-57.9l1.71-7.12C196.3 538.23 401.46 555.86 647.37 547l.26 7.31q-61.54 2.19-119.87 2.19z" fill="#fff"/>
            <path d="M527.76 523.57c-194.94 0-365-18.8-527.76-57.91l1.71-7.11C196.3 505.3 401.46 522.93 647.37 514l.26 7.31q-61.54 2.26-119.87 2.26z" fill="#fff"/>
            <path d="M527.76 490.64c-194.94 0-365-18.8-527.76-57.91l1.71-7.11C196.3 472.37 401.46 490 647.37 481.09l.26 7.31q-61.54 2.24-119.87 2.24z" fill="#fff"/>
            <path d="M527.76 457.7c-194.94 0-365-18.79-527.76-57.9l1.71-7.12c194.59 46.76 399.75 64.38 645.66 55.47l.26 7.32q-61.54 2.22-119.87 2.23z" fill="#fff"/>
            <path d="M527.76 424.77c-194.94 0-365-18.8-527.76-57.9l1.71-7.12c194.59 46.76 399.75 64.38 645.66 55.47l.26 7.32q-61.54 2.22-119.87 2.23z" fill="#fff"/>
            <path d="M527.76 391.84c-194.94 0-365-18.8-527.76-57.9l1.71-7.12c194.59 46.75 399.75 64.38 645.66 55.47l.26 7.31q-61.54 2.23-119.87 2.24z" fill="#fff"/>
            <path d="M527.76 358.91c-194.94 0-365-18.8-527.76-57.9l1.71-7.12c194.59 46.75 399.75 64.38 645.66 55.47l.26 7.31q-61.54 2.24-119.87 2.24z" fill="#fff"/>
            <path d="M527.76 326c-194.94 0-365-18.8-527.76-57.91L1.71 261c194.59 46.75 399.75 64.38 645.66 55.47l.26 7.31Q586.09 326 527.76 326z" fill="#fff"/>
            <path d="M527.76 293.05c-194.94 0-365-18.8-527.76-57.91L1.71 228c194.59 46.78 399.75 64.4 645.66 55.5l.26 7.31q-61.54 2.19-119.87 2.24z" fill="#fff"/>
            <path d="M527.76 260.11c-194.94 0-365-18.79-527.76-57.9l1.71-7.11c194.59 46.75 399.75 64.37 645.66 55.46l.26 7.32q-61.54 2.22-119.87 2.23z" fill="#fff"/>
            <path d="M527.76 227.18c-194.94 0-365-18.79-527.76-57.9l1.71-7.12c194.59 46.76 399.75 64.38 645.66 55.47l.26 7.32q-61.54 2.22-119.87 2.23z" fill="#fff"/>
            <path d="M527.76 194.25c-194.94 0-365-18.8-527.76-57.9l1.71-7.12C196.3 176 401.46 193.61 647.37 184.7l.26 7.31q-61.54 2.24-119.87 2.24z" fill="#fff"/>
            <path d="M527.76 161.32c-194.94 0-365-18.8-527.76-57.9l1.71-7.12c194.59 46.75 399.75 64.38 645.66 55.47l.26 7.31q-61.54 2.24-119.87 2.24z" fill="#fff"/>
            <path d="M527.76 128.39c-194.94 0-365-18.8-527.76-57.91l1.71-7.11c194.59 46.75 399.75 64.37 645.66 55.47l.26 7.31q-61.54 2.24-119.87 2.24z" fill="#fff"/>
        </g>
    </g>
</svg>
