<svg xmlns="http://www.w3.org/2000/svg" viewBox="0 0 2146.49 1016.33">
    <g data-name="Layer 2">
        <g data-name="LAYOUT Edit">
            <path d="M2146 963.72C1430.67 781.5 715.33 1146 0 963.72V54.6c715.33 182.23 1430.67-182.22 2146 0z" fill="#fef7f7"/>
            <path d="M1402.55 916.59c247.82-22.63 495.63-25.11 743.45 38M1402.55 898.59c247.82-22.63 495.63-25.11 743.45 38M1402.55 880.59c247.82-22.63 495.63-25.11 743.45 38M1402.55 862.59c247.82-22.63 495.63-25.11 743.45 38M1402.55 844.59c247.82-22.63 495.63-25.11 743.45 38M1402.55 826.59c247.82-22.63 495.63-25.11 743.45 38M1402.55 808.59c247.82-22.63 495.63-25.11 743.45 38M1402.55 790.59c247.82-22.63 495.63-25.11 743.45 38M1402.55 772.59c247.82-22.63 495.63-25.11 743.45 38M1402.55 754.59c247.82-22.63 495.63-25.11 743.45 38M1402.55 736.59c247.82-22.63 495.63-25.11 743.45 38M1402.55 718.59c247.82-22.63 495.63-25.11 743.45 38M1402.55 700.59c247.82-22.63 495.63-25.12 743.45 38M1402.55 682.59c247.82-22.63 495.63-25.12 743.45 38M1402.55 664.59c247.82-22.63 495.63-25.12 743.45 38M1402.55 646.59c247.82-22.63 495.63-25.12 743.45 38M1402.55 628.59c247.82-22.63 495.63-25.12 743.45 38M1402.55 610.59c247.82-22.63 495.63-25.12 743.45 38M1402.55 592.59c247.82-22.63 495.63-25.12 743.45 38M1402.55 574.59c247.82-22.63 495.63-25.12 743.45 38M1402.55 556.59c247.82-22.63 495.63-25.12 743.45 38M1402.55 538.59c247.82-22.63 495.63-25.12 743.45 38M1402.55 520.59c247.82-22.63 495.63-25.12 743.45 38M1402.55 502.59c247.82-22.63 495.63-25.12 743.45 38M1402.55 484.59c247.82-22.63 495.63-25.12 743.45 38M1402.55 466.59c247.82-22.63 495.63-25.12 743.45 38M1402.55 448.59c247.82-22.63 495.63-25.12 743.45 38M1402.55 430.59c247.82-22.63 495.63-25.12 743.45 38M1402.55 412.59c247.82-22.63 495.63-25.12 743.45 38M1402.55 394.59c247.82-22.63 495.63-25.12 743.45 38M1402.55 376.59c247.82-22.63 495.63-25.12 743.45 38M1402.55 358.59c247.82-22.63 495.63-25.12 743.45 38M1402.55 340.59c247.82-22.63 495.63-25.12 743.45 38M1402.55 322.59c247.82-22.63 495.63-25.12 743.45 38M1402.55 304.59c247.82-22.63 495.63-25.12 743.45 38M1402.55 286.59c247.82-22.63 495.63-25.12 743.45 38M1402.55 268.59c247.82-22.63 495.63-25.12 743.45 38M1402.55 250.59c247.82-22.63 495.63-25.12 743.45 38M1402.55 232.59c247.82-22.63 495.63-25.12 743.45 38M1402.55 214.59c247.82-22.63 495.63-25.12 743.45 38M1402.55 196.59c247.82-22.63 495.63-25.12 743.45 38M1402.55 178.59c247.82-22.63 495.63-25.12 743.45 38M1402.55 160.59c247.82-22.63 495.63-25.12 743.45 38M1402.55 142.59c247.82-22.63 495.63-25.12 743.45 38M1402.55 124.59c247.82-22.63 495.63-25.12 743.45 38M1402.55 106.59C1650.37 84 1898.18 81.47 2146 144.6M1402.55 88.59C1650.37 66 1898.18 63.47 2146 126.6M1402.55 70.59C1650.37 48 1898.18 45.47 2146 108.6M1402.55 52.59C1650.37 30 1898.18 27.47 2146 90.6M1402.55 34.59C1650.37 12 1898.18 9.47 2146 72.6M1402.55 16.59C1650.37-6 1898.18-8.53 2146 54.6" fill="none" stroke="#fff" stroke-miterlimit="10" stroke-width="4"/>
        </g>
    </g>
</svg>
